<svg version="1.1" id="Layer_1" xmlns="http://www.w3.org/2000/svg" xmlns:xlink="http://www.w3.org/1999/xlink" x="0px" y="0px"
	 width="100%" viewBox="0 0 2000 2250" enable-background="new 0 0 2000 2250" xml:space="preserve">
<path fill="#4C6971" opacity="1.000000" stroke="none" 
	d="
M2002.000000,932.000000 
	C2002.000000,1371.919067 2002.000000,1811.838013 2002.000000,2251.878418 
	C1335.536865,2251.878418 669.073792,2251.878418 2.000000,2251.878418 
	C2.000000,1851.277466 2.000000,1450.554688 2.618052,1049.184570 
	C5.865653,1052.332397 8.951974,1055.892700 11.045050,1059.963623 
	C19.722780,1076.841064 28.343086,1093.756470 36.537048,1110.872314 
	C52.828148,1144.901733 66.644539,1179.942871 75.977379,1216.521851 
	C81.487000,1238.115967 85.897301,1260.041992 89.647446,1282.015747 
	C92.135155,1296.592285 86.935303,1301.671265 72.517654,1301.903564 
	C65.516113,1302.016357 64.490829,1302.487915 64.249504,1309.940186 
	C63.850933,1322.247925 64.131126,1334.580322 64.238708,1346.901367 
	C64.380119,1363.096069 67.586464,1378.761475 73.944572,1393.586426 
	C89.438026,1429.711914 105.101196,1465.767944 121.072357,1501.684570 
	C145.575409,1556.787598 170.648743,1611.647827 191.552536,1668.264404 
	C198.705353,1687.637329 205.371094,1707.193970 211.992783,1726.756836 
	C214.047470,1732.827393 216.624908,1737.172363 223.770737,1738.541016 
	C231.111069,1739.947144 236.886124,1744.789185 241.640503,1750.652222 
	C248.314590,1758.882568 252.115860,1768.256226 253.911026,1778.687622 
	C258.908752,1807.728394 266.780396,1835.863281 280.824097,1862.017456 
	C291.338257,1881.598511 304.201843,1899.293579 321.816223,1913.092773 
	C344.224762,1930.647583 369.094696,1941.420410 398.260742,1940.319824 
	C409.241669,1939.905396 420.253967,1940.129883 431.248260,1940.299561 
	C457.116364,1940.698975 480.300171,1948.013184 499.804535,1965.923340 
	C505.855225,1971.479492 513.108337,1975.997437 520.402100,1979.880127 
	C547.406494,1994.255371 576.280518,2001.288086 606.957581,2000.120117 
	C612.502869,1999.909058 617.297119,2001.250366 622.182129,2003.824707 
	C643.102600,2014.849731 664.161926,2025.612305 685.200806,2036.411621 
	C716.624329,2052.541504 747.979248,2068.806152 777.199585,2088.779053 
	C785.293396,2094.311523 793.024170,2095.135498 801.247742,2089.487305 
	C802.221191,2088.818604 803.586121,2088.719727 806.172302,2087.926758 
	C806.567017,2092.493896 807.423889,2096.309082 807.126404,2100.031982 
	C805.895081,2115.440674 806.322388,2115.980957 821.961609,2114.232178 
	C842.482849,2111.937744 862.968262,2109.259521 883.526611,2107.373047 
	C925.646606,2103.507568 967.758240,2100.642090 1010.170044,2103.400391 
	C1044.229492,2105.615234 1077.731689,2110.085938 1110.591309,2119.451416 
	C1115.138184,2120.747559 1120.669067,2120.891602 1125.187256,2119.607910 
	C1150.788818,2112.334717 1175.432495,2115.109375 1199.212402,2126.110107 
	C1212.492798,2132.253662 1225.388794,2139.269531 1238.225830,2146.314941 
	C1246.174927,2150.677734 1254.651245,2151.708252 1263.312256,2151.376221 
	C1271.384399,2151.067383 1274.247681,2147.110352 1273.614258,2138.815186 
	C1273.563599,2138.152344 1273.521606,2137.465332 1273.317261,2136.841553 
	C1271.481689,2131.238281 1274.089600,2127.935059 1278.983521,2125.807861 
	C1280.815186,2125.011963 1282.662231,2124.250977 1284.506836,2123.484863 
	C1304.686401,2115.107178 1326.271973,2112.306152 1347.358398,2107.483887 
	C1356.541870,2105.384033 1363.851685,2107.831299 1369.840820,2114.596436 
	C1374.692017,2120.076416 1378.902832,2126.132568 1383.860718,2131.506104 
	C1387.196899,2135.122070 1391.045288,2138.479004 1395.231323,2141.017578 
	C1397.776123,2142.560791 1401.802979,2143.509277 1404.441162,2142.608398 
	C1408.238647,2141.311523 1406.626099,2137.065186 1406.737793,2133.794922 
	C1407.009888,2125.837891 1407.068359,2117.787354 1408.387939,2109.973145 
	C1410.274780,2098.800781 1416.796509,2093.362061 1428.128296,2092.072021 
	C1430.767944,2091.771729 1433.452759,2091.764404 1436.115112,2091.790039 
	C1442.777832,2091.854492 1449.439331,2092.100098 1456.101685,2092.117188 
	C1466.269409,2092.143066 1467.731934,2090.667969 1467.801880,2080.705322 
	C1467.843872,2074.707520 1467.796875,2068.709229 1467.886963,2062.712402 
	C1467.980713,2056.469971 1470.057007,2051.002686 1474.407104,2046.416504 
	C1494.807007,2024.909790 1514.891357,2003.092529 1535.715088,1982.004761 
	C1543.368652,1974.254272 1552.502686,1967.864136 1561.421509,1961.498047 
	C1568.087891,1956.739990 1569.497192,1957.202515 1575.169556,1962.714600 
	C1578.505371,1965.955933 1581.344727,1969.710327 1584.697388,1972.932129 
	C1589.820557,1977.855469 1593.584839,1984.326904 1601.706787,1988.366577 
	C1602.006958,1984.453003 1602.637695,1981.617798 1602.365234,1978.872437 
	C1600.969604,1964.808838 1595.085571,1952.719482 1585.661255,1942.283325 
	C1581.873779,1938.089355 1577.595215,1934.235107 1574.415039,1929.622925 
	C1570.590576,1924.076050 1571.842041,1920.466553 1578.040894,1917.837158 
	C1583.548950,1915.500488 1589.426270,1914.045288 1594.981201,1911.805542 
	C1612.725220,1904.651245 1629.871826,1903.411255 1645.999390,1916.352539 
	C1646.406372,1916.541992 1646.662354,1916.589966 1646.918335,1916.637939 
	C1646.828003,1916.183716 1646.737549,1915.729248 1646.485352,1914.549927 
	C1645.569214,1911.974731 1644.777954,1910.138550 1644.067017,1908.271851 
	C1640.397339,1898.635742 1641.563477,1893.688721 1650.658203,1889.338257 
	C1656.783569,1886.408081 1663.822388,1884.915039 1670.617432,1883.989990 
	C1677.499878,1883.053101 1684.608154,1883.930420 1691.576904,1883.438599 
	C1706.135376,1882.411133 1715.737671,1874.555176 1720.072021,1860.779663 
	C1722.056274,1854.473267 1723.377441,1847.838745 1723.995483,1841.258789 
	C1724.523071,1835.640747 1726.248901,1830.984985 1729.970825,1826.870728 
	C1732.427490,1824.155151 1734.738525,1821.301514 1737.018921,1818.433472 
	C1757.745117,1792.363770 1779.411133,1766.974243 1798.947510,1740.040527 
	C1832.479736,1693.811646 1860.297729,1644.067383 1883.882080,1592.072876 
	C1896.675659,1563.868408 1908.237915,1535.103149 1920.183960,1506.519165 
	C1921.474976,1503.430176 1923.888550,1500.141235 1921.381104,1495.306396 
	C1918.553711,1496.984741 1915.923950,1498.196655 1913.693604,1499.924072 
	C1891.953491,1516.761353 1872.792969,1536.080444 1857.310913,1558.911865 
	C1852.450073,1566.080078 1847.862305,1573.468994 1842.536011,1580.277100 
	C1835.782715,1588.908936 1830.256104,1590.082031 1819.755005,1586.454224 
	C1818.243774,1585.932129 1816.639648,1585.678711 1813.679565,1584.962524 
	C1810.429443,1593.995483 1807.265991,1602.787476 1804.102661,1611.579468 
	C1803.348267,1611.464233 1802.593994,1611.348877 1801.839600,1611.233521 
	C1801.839600,1605.542480 1801.839600,1599.851318 1801.839600,1592.187988 
	C1796.853760,1595.614502 1793.524414,1597.676270 1790.445068,1600.060913 
	C1780.699341,1607.607788 1771.183838,1615.457520 1761.335815,1622.866577 
	C1706.761230,1663.926636 1652.339355,1705.195312 1597.429321,1745.803101 
	C1541.698120,1787.017822 1484.343140,1825.917603 1425.885498,1863.169556 
	C1421.160400,1866.180664 1415.855957,1868.477783 1410.552979,1870.347168 
	C1398.446655,1874.614868 1389.288452,1871.641479 1381.416504,1861.509277 
	C1373.232666,1850.975830 1373.317993,1851.077148 1362.825684,1859.920532 
	C1357.504395,1864.405762 1352.218384,1869.195435 1346.177979,1872.495605 
	C1339.244385,1876.283936 1333.548584,1872.917847 1332.415039,1865.110840 
	C1331.799438,1860.870605 1332.229370,1856.478638 1332.241455,1852.092773 
	C1332.295166,1852.030640 1331.928711,1851.909302 1331.018555,1851.902344 
	C1324.121338,1851.711426 1318.103638,1851.847046 1312.153442,1851.277222 
	C1299.556152,1850.071045 1295.729614,1852.146606 1290.184937,1863.613159 
	C1288.693970,1866.696533 1288.526855,1871.062866 1282.802734,1871.717773 
	C1281.393799,1869.622437 1279.746338,1867.242432 1278.173828,1864.813965 
	C1276.566650,1862.332031 1275.414673,1859.238647 1269.885498,1860.650146 
	C1268.350952,1867.816772 1266.664551,1875.692749 1264.921509,1883.833374 
	C1256.106323,1877.660278 1253.737671,1877.970337 1247.181641,1885.855713 
	C1244.906006,1888.592896 1242.822998,1891.490112 1239.549072,1895.748779 
	C1234.488647,1888.834229 1230.280029,1883.061768 1226.047607,1877.306763 
	C1221.778076,1871.501343 1217.468628,1865.730103 1209.776611,1860.862793 
	C1210.307373,1871.087402 1217.000122,1879.292969 1211.989258,1888.790161 
	C1208.959351,1887.482666 1206.407471,1886.381348 1202.623047,1884.748291 
	C1201.732788,1891.410278 1200.756592,1897.226685 1200.233643,1903.083740 
	C1199.782715,1908.133179 1197.458496,1911.480103 1193.384277,1914.546875 
	C1187.583862,1918.912964 1182.251709,1923.969482 1177.104126,1929.115723 
	C1171.564453,1934.653564 1165.853271,1939.503540 1157.602783,1940.171265 
	C1152.956787,1940.547363 1148.341553,1941.326782 1143.693237,1941.646118 
	C1112.028687,1943.821533 1080.721191,1948.518311 1050.063477,1956.625366 
	C1038.617310,1959.652100 1028.096436,1959.236572 1016.769775,1956.421265 
	C946.136414,1938.864380 874.511841,1927.248169 801.923950,1921.582397 
	C786.327576,1920.364990 770.685364,1919.036743 755.249390,1916.591187 
	C708.496704,1909.183838 665.700867,1891.149780 625.430603,1866.720825 
	C622.712830,1865.072144 620.278931,1862.955688 617.502869,1860.901367 
	C623.329102,1854.979492 628.958069,1850.273193 633.285278,1844.577759 
	C637.723572,1838.736328 640.210571,1831.882812 634.339600,1823.290894 
	C625.529846,1836.896729 611.630310,1838.271362 598.303284,1840.949097 
	C596.669922,1841.277222 595.013245,1841.535400 593.418091,1842.000244 
	C585.844727,1844.207764 580.092590,1841.715820 574.615845,1836.178711 
	C561.500061,1822.918701 548.056885,1809.973999 534.509827,1797.151245 
	C507.176453,1771.279297 479.669128,1745.591309 452.264648,1719.794434 
	C418.313232,1687.834595 383.940887,1656.304077 350.608032,1623.711060 
	C325.618042,1599.275269 301.713165,1573.705444 277.860077,1548.141479 
	C266.065338,1535.500854 254.782425,1522.247681 244.510712,1508.352905 
	C229.751541,1488.387817 220.430618,1465.398071 211.014435,1442.585815 
	C200.588440,1417.327271 190.413605,1391.964722 179.899734,1366.743042 
	C178.079590,1362.376587 176.947662,1357.058350 171.233856,1355.182495 
	C169.746658,1356.247070 168.430130,1357.244385 167.059830,1358.161255 
	C158.689453,1363.761963 153.331223,1363.040161 147.785812,1354.542725 
	C144.735794,1349.869019 142.225204,1344.557495 140.835785,1339.180908 
	C139.814331,1335.228149 140.227753,1330.478638 141.379349,1326.480957 
	C143.588867,1318.810669 149.074677,1316.217651 156.844757,1318.086548 
	C159.299576,1318.677002 161.757874,1319.253174 165.650757,1320.176514 
	C165.291077,1315.439331 165.220383,1311.907227 164.729187,1308.434448 
	C158.802826,1266.535522 152.872101,1224.636841 146.803543,1182.758423 
	C145.182648,1171.572632 146.182480,1160.756470 150.727005,1150.451294 
	C154.891876,1141.006958 159.285538,1131.641479 164.066177,1122.496216 
	C169.726349,1111.668457 172.728043,1100.234131 173.878143,1088.143066 
	C175.360626,1072.557251 177.089813,1056.994263 178.810898,1041.432373 
	C183.827850,996.069580 188.750061,950.695618 193.998367,905.359497 
	C196.793610,881.213623 199.090897,856.933960 203.511459,833.066345 
	C217.508301,757.494324 247.932404,688.773254 292.487244,626.259766 
	C328.047943,576.365784 370.404480,532.573975 414.911163,490.763977 
	C436.028809,470.925842 457.728027,451.703796 478.725464,431.741608 
	C498.124878,413.298553 518.557129,396.428589 542.001831,383.245728 
	C564.360352,370.673615 586.387756,357.507141 608.454956,344.423615 
	C658.030945,315.030334 707.282227,285.114471 760.344666,262.080200 
	C817.779358,237.147919 877.505005,221.947952 939.999329,218.095566 
	C960.237122,216.848022 980.447754,215.646027 1000.859375,217.311737 
	C1014.974609,218.463623 1029.563965,217.403717 1043.588501,215.142517 
	C1060.492676,212.417038 1069.328125,201.349594 1072.029907,184.549850 
	C1074.010986,172.230881 1073.265015,159.987473 1072.033081,147.726242 
	C1071.398926,141.415146 1069.869141,139.799271 1063.674194,140.776978 
	C1053.557495,142.373611 1045.387207,138.494720 1037.625854,132.995209 
	C1033.828247,130.304337 1030.419678,127.071312 1026.707764,124.250969 
	C1020.880066,119.822975 1015.205566,115.113289 1008.995605,111.286621 
	C998.991028,105.121536 988.896912,102.868919 976.902588,107.884010 
	C955.402832,116.873535 933.146667,124.033989 911.380859,132.411667 
	C871.817444,147.639618 833.091919,164.594955 798.348328,189.432159 
	C796.653931,190.643433 794.322998,190.964294 791.337769,192.043472 
	C791.337769,188.095840 791.261719,185.225067 791.353027,182.359634 
	C791.565063,175.705307 792.283325,169.036270 792.014465,162.404907 
	C791.643677,153.259735 786.259521,149.799271 777.883362,153.438507 
	C773.706726,155.253174 769.840027,158.174820 766.414673,161.244629 
	C758.977783,167.909409 752.165955,175.279938 744.637451,181.832153 
	C734.355713,190.780624 723.784058,199.412994 713.067749,207.838821 
	C706.192200,213.244827 698.328125,214.644424 689.487732,213.119720 
	C661.431885,208.280930 635.863281,214.698898 613.049744,231.643829 
	C592.565491,246.858673 576.470520,265.679565 567.689270,289.955475 
	C565.289307,296.590179 561.300049,299.734650 554.489563,299.856537 
	C551.492676,299.910156 548.478821,300.382904 545.506042,300.178802 
	C530.892212,299.175415 516.253052,298.353607 501.692413,296.810974 
	C483.977814,294.934204 467.510864,297.751862 453.949280,309.759705 
	C425.529755,334.923279 397.074219,360.078613 369.492828,386.146545 
	C345.278534,409.032166 322.182953,433.104919 298.690857,456.750305 
	C269.595428,486.035614 270.635712,481.007477 256.466431,524.035706 
	C251.502563,539.109619 244.068085,552.640198 233.566650,564.656494 
	C214.465851,586.512634 193.116058,606.054443 172.097672,625.974976 
	C152.046539,644.978882 131.813141,663.874084 112.938004,684.014832 
	C87.123947,711.559631 68.790215,743.951172 55.613987,779.333984 
	C40.876217,818.910095 32.667953,860.055603 25.880119,901.527100 
	C19.099754,942.952881 12.876159,984.469543 6.201930,1025.913086 
	C5.534084,1030.060059 3.434898,1033.976562 2.000002,1038.000000 
	C2.000000,692.739319 2.000000,347.478638 2.000000,2.108989 
	C668.453735,2.108989 1334.907471,2.108989 2002.000000,2.108989 
	C2002.000000,308.722443 2002.000000,615.445312 2001.400391,923.399780 
	C1991.683716,929.014893 1985.910522,936.657654 1980.706055,944.948547 
	C1978.603638,948.297852 1976.393311,951.799194 1973.471436,954.365295 
	C1968.518311,958.715149 1964.750977,957.127808 1964.027832,950.704651 
	C1963.619629,947.078491 1963.912720,943.379150 1963.740112,939.719849 
	C1962.360229,910.456238 1962.187744,881.069397 1959.265137,851.959412 
	C1954.175171,801.263123 1947.330688,750.743958 1941.354126,700.134888 
	C1940.352295,691.650757 1937.281494,684.242004 1932.755127,677.016296 
	C1873.848145,582.978333 1815.163208,488.801147 1756.243652,394.771088 
	C1747.236328,380.396484 1738.454346,365.647827 1727.641724,352.678131 
	C1684.358032,300.759430 1631.011108,261.261078 1571.453125,229.986435 
	C1530.595459,208.531616 1487.486938,192.715500 1443.086426,180.165604 
	C1412.960327,171.650345 1382.162109,169.155060 1351.166748,168.470123 
	C1334.217651,168.095596 1317.231934,169.457657 1300.260742,169.973907 
	C1293.600220,170.176514 1286.934204,170.318375 1280.271484,170.289505 
	C1271.715576,170.252411 1264.742432,173.703369 1259.012695,179.776306 
	C1256.510254,182.428528 1254.179199,185.321762 1252.228394,188.396210 
	C1249.482788,192.723495 1246.237793,193.448776 1241.258179,192.294067 
	C1221.146240,187.630325 1200.763672,188.717178 1180.752563,192.283493 
	C1161.068726,195.791489 1148.680542,212.430725 1148.271362,232.388153 
	C1148.007568,245.261414 1153.385864,255.773193 1161.665894,264.817810 
	C1175.081055,279.471741 1191.010132,290.842102 1209.113403,299.167084 
	C1238.660034,312.754456 1269.914307,318.402557 1302.166260,319.925385 
	C1306.973633,320.152374 1312.160278,321.388275 1316.367310,323.652069 
	C1331.028931,331.541565 1345.470093,339.865967 1359.757935,348.421082 
	C1436.744263,394.518524 1509.634155,446.671448 1582.334595,499.110931 
	C1611.785156,520.353882 1641.626831,541.054321 1671.079346,562.294617 
	C1681.459961,569.780823 1692.377563,571.489014 1704.153442,567.320923 
	C1711.339111,564.777649 1718.211182,561.350464 1725.233643,558.342224 
	C1730.563354,556.059082 1735.219727,551.802917 1742.633789,552.191223 
	C1742.968628,555.444824 1743.708618,558.324890 1743.483398,561.127380 
	C1741.718018,583.092651 1745.439087,604.292053 1752.565308,624.925354 
	C1757.892212,640.348755 1763.680908,655.620300 1769.586426,670.834229 
	C1776.390747,688.363220 1787.325439,702.776672 1803.041748,713.365479 
	C1807.462646,716.343994 1811.953125,719.230225 1816.250732,722.378418 
	C1831.612793,733.631409 1841.586792,748.463806 1846.342285,766.991394 
	C1851.742676,788.030945 1849.968384,808.769165 1843.453003,829.039185 
	C1840.646362,837.770630 1841.332031,845.310242 1845.627808,852.856262 
	C1855.839111,870.793701 1865.418823,889.155701 1876.693237,906.405334 
	C1888.724976,924.813965 1902.286621,942.478027 1920.830566,954.885193 
	C1930.369385,961.267395 1934.048096,968.959045 1933.935181,979.870422 
	C1933.885010,984.704407 1934.853882,989.939209 1936.841919,994.319519 
	C1940.531128,1002.448059 1947.653931,1003.959473 1955.010010,998.984070 
	C1957.545044,997.269409 1959.857666,995.226135 1963.557617,992.324890 
	C1963.557617,997.133850 1963.795410,999.761780 1963.519775,1002.334717 
	C1961.426758,1021.871765 1959.042603,1041.379272 1957.122192,1060.932495 
	C1955.031372,1082.221558 1955.108887,1103.517090 1958.531860,1124.698486 
	C1959.123413,1128.359375 1960.282104,1131.928711 1961.178955,1135.540283 
	C1961.882812,1135.418457 1962.586792,1135.296753 1963.290649,1135.174927 
	C1964.082397,1127.302368 1965.002808,1119.440308 1965.644287,1111.555542 
	C1969.025757,1069.985352 1974.524780,1028.698975 1984.603760,988.211121 
	C1989.334473,969.208191 1996.136597,950.720947 2002.000000,932.000000 
M1361.985840,1288.411743 
	C1344.679443,1288.481812 1327.373047,1288.534424 1310.067139,1288.674683 
	C1309.210815,1288.681641 1308.360718,1289.453369 1307.302002,1289.969360 
	C1308.309448,1295.918701 1309.967896,1301.727783 1310.149658,1307.582642 
	C1310.581543,1321.482056 1310.960815,1335.439087 1310.190186,1349.307861 
	C1308.734497,1375.502197 1306.606445,1401.663330 1304.430420,1427.811157 
	C1303.726562,1436.268921 1301.997437,1444.641235 1300.557983,1454.249634 
	C1320.743774,1454.004761 1340.091797,1455.274414 1359.572510,1453.419800 
	C1358.426880,1442.006836 1356.496704,1431.787476 1356.543579,1421.577148 
	C1356.691895,1389.323242 1357.086670,1357.052002 1358.448120,1324.832275 
	C1358.932495,1313.373535 1362.460571,1302.043335 1365.077515,1290.015381 
	C1364.663452,1289.524536 1364.249512,1289.033569 1361.985840,1288.411743 
M1406.277466,1386.172241 
	C1406.501099,1407.629028 1404.206177,1428.854370 1400.548706,1450.794434 
	C1400.895142,1451.347900 1401.391113,1451.575317 1403.902954,1451.603394 
	C1413.229126,1451.626831 1422.558716,1451.815918 1431.880493,1451.626587 
	C1441.017700,1451.441162 1450.269653,1452.552246 1459.791992,1450.688843 
	C1459.251953,1444.061646 1458.436890,1438.481201 1458.404175,1432.896240 
	C1458.260010,1408.266846 1459.121582,1383.601440 1458.029297,1359.019653 
	C1457.435669,1345.660889 1462.557983,1336.739258 1472.692383,1329.583252 
	C1477.845947,1325.944702 1482.851318,1321.890625 1488.474854,1319.159668 
	C1510.229126,1308.595215 1542.844482,1316.000122 1547.308716,1349.205444 
	C1547.706787,1352.166138 1547.854126,1355.182373 1547.848999,1358.172363 
	C1547.804810,1383.787964 1547.840454,1409.416016 1544.177368,1434.851440 
	C1543.246216,1441.317383 1541.809204,1447.710571 1540.334961,1455.575684 
	C1560.622559,1455.448853 1579.971924,1456.304565 1600.062134,1455.023804 
	C1600.062134,1440.987915 1599.679199,1428.354492 1600.142944,1415.752197 
	C1601.071777,1390.509644 1603.235474,1365.290283 1603.438599,1340.049683 
	C1603.625610,1316.803833 1592.832520,1298.566650 1571.539062,1288.792114 
	C1538.817505,1273.771851 1505.830322,1273.963989 1473.544556,1291.069092 
	C1470.176025,1292.853638 1466.787842,1294.600952 1462.952393,1296.604004 
	C1461.914062,1291.654907 1461.183472,1288.172363 1460.404785,1284.460815 
	C1441.184937,1282.939575 1422.469482,1281.235474 1402.976074,1282.979736 
	C1410.551270,1316.396484 1408.480835,1349.242798 1406.525757,1382.753540 
	C1406.286133,1383.259277 1406.174194,1383.791748 1406.277466,1386.172241 
M967.462158,1454.301758 
	C967.462158,1454.301758 967.399353,1455.103760 967.399353,1455.103760 
	C967.399353,1455.103760 968.208679,1455.409058 970.050171,1455.577148 
	C989.270386,1455.577148 1008.490662,1455.577148 1028.215088,1455.577148 
	C1027.295044,1444.711060 1025.936523,1435.196045 1025.792725,1425.662720 
	C1025.450928,1403.008545 1025.664795,1380.345581 1025.693604,1357.686157 
	C1025.707520,1346.705811 1026.305908,1335.700806 1025.763184,1324.750366 
	C1024.799927,1305.310181 1015.006287,1290.618042 998.852295,1280.504517 
	C991.902100,1276.153198 984.038574,1272.633667 976.112427,1270.577881 
	C943.885193,1262.219482 912.662170,1266.327637 882.789246,1280.497192 
	C869.990845,1286.567993 858.999451,1295.336060 850.945679,1307.154907 
	C847.309937,1312.490356 842.738892,1317.661011 842.698486,1325.945435 
	C856.861755,1327.854248 870.854065,1329.739868 883.838135,1331.489624 
	C887.830200,1325.577637 890.276917,1320.219727 894.220703,1316.412720 
	C911.725464,1299.515503 932.764526,1294.742065 956.038147,1300.773438 
	C966.663452,1303.527100 974.328552,1310.692017 977.082947,1321.563354 
	C979.288696,1330.269043 978.964661,1339.271729 977.275146,1348.518921 
	C975.037354,1348.917969 973.140137,1349.457642 971.218567,1349.566284 
	C957.937073,1350.317627 944.566101,1350.270630 931.385803,1351.840088 
	C912.915283,1354.039673 894.459167,1356.799072 876.236816,1360.500122 
	C862.484985,1363.292969 849.550293,1368.772949 838.737976,1378.346924 
	C824.434448,1391.011719 823.662292,1412.122314 837.810364,1425.016968 
	C842.881653,1429.639282 849.057739,1433.341797 855.265625,1436.363037 
	C867.696655,1442.413208 881.274109,1444.428467 894.912292,1445.654175 
	C918.005066,1447.729370 940.786926,1445.662842 963.280457,1440.105347 
	C966.331787,1439.351318 969.468384,1438.942139 972.766357,1438.336426 
	C974.103210,1445.349976 971.373474,1449.789062 967.462158,1454.301758 
M1065.968506,1206.059814 
	C1067.197266,1217.944580 1069.351562,1229.820923 1069.460205,1241.715942 
	C1069.678589,1265.661499 1069.138916,1289.630371 1068.256470,1313.565430 
	C1067.166260,1343.134399 1065.652344,1372.693848 1063.847900,1402.228394 
	C1062.776611,1419.761475 1060.793213,1437.238770 1059.100708,1456.065918 
	C1078.737915,1456.276489 1098.104126,1457.061646 1117.639282,1455.501953 
	C1117.639282,1450.771484 1117.682007,1447.137573 1117.632568,1443.505005 
	C1117.220337,1413.242432 1116.645508,1382.980469 1116.560791,1352.717285 
	C1116.550781,1349.143066 1118.267944,1344.614868 1120.776001,1342.145752 
	C1132.150269,1330.947876 1145.511230,1322.794678 1161.662476,1320.823120 
	C1186.564575,1317.783081 1208.226685,1328.018677 1215.768799,1354.167358 
	C1217.957031,1361.754639 1219.083130,1369.807495 1219.513306,1377.711182 
	C1220.553711,1396.827148 1217.112793,1415.475952 1212.246826,1433.896729 
	C1211.185913,1437.913086 1210.469360,1442.020264 1209.382324,1447.070557 
	C1229.318848,1447.984741 1247.755615,1447.969238 1266.453735,1447.202148 
	C1265.696045,1423.538086 1264.974609,1401.004761 1264.824097,1377.773682 
	C1265.161255,1377.244507 1265.287964,1376.669067 1265.486450,1374.194824 
	C1265.539917,1366.865723 1265.821655,1359.529907 1265.607788,1352.208618 
	C1264.604492,1317.849487 1244.221924,1292.931519 1210.993530,1286.593140 
	C1182.695190,1281.195312 1155.375488,1285.689453 1129.131470,1297.239502 
	C1125.898804,1298.661987 1122.739380,1300.250488 1117.741577,1302.616089 
	C1119.170410,1268.089111 1119.772949,1235.381348 1126.881592,1202.683716 
	C1106.687500,1199.110229 1086.419434,1200.451782 1065.225464,1200.840698 
	C1065.369629,1202.043457 1065.513794,1203.246338 1065.968506,1206.059814 
M404.794525,1448.183105 
	C405.261078,1449.280029 405.727631,1450.376831 408.040100,1451.604248 
	C427.387115,1451.465332 446.734100,1451.326294 466.522217,1451.226318 
	C466.522217,1451.226318 466.888214,1450.494751 466.888214,1450.494751 
	C466.888214,1450.494751 466.249115,1449.920898 466.026245,1448.066040 
	C466.187561,1434.751587 465.373718,1421.339111 466.700958,1408.141846 
	C470.095551,1374.388672 474.346039,1340.719360 478.472748,1307.043335 
	C479.625092,1297.639526 481.537659,1288.328979 483.382019,1277.297607 
	C486.182800,1280.281616 487.722137,1281.531372 488.774780,1283.106445 
	C495.621124,1293.350952 502.736145,1303.441284 509.068298,1313.999023 
	C529.797180,1348.561157 550.314697,1383.251221 570.684937,1418.025757 
	C573.878174,1423.477173 577.660034,1426.466064 584.139709,1426.362183 
	C597.799438,1426.143066 611.468323,1426.074463 625.126160,1426.331787 
	C632.697754,1426.474487 637.255554,1423.260620 640.903748,1416.651123 
	C650.075500,1400.034424 659.700134,1383.656616 669.525696,1367.414429 
	C685.902405,1340.342651 702.530029,1313.421997 719.198364,1286.528442 
	C720.946716,1283.707520 722.178040,1279.843872 728.001587,1278.939941 
	C735.151123,1336.182129 745.366821,1392.483887 744.554993,1450.796021 
	C744.895630,1451.345093 745.385071,1451.568604 747.890442,1451.602173 
	C767.006897,1451.324341 786.173035,1452.564941 804.979492,1450.917236 
	C805.328674,1449.094849 805.694519,1448.393066 805.535339,1447.843262 
	C796.867371,1417.911987 795.082764,1386.943237 791.880676,1356.209839 
	C788.745911,1326.121704 785.819702,1296.004761 783.377380,1265.853760 
	C781.509216,1242.791260 778.823914,1219.606812 785.624573,1196.200684 
	C759.061951,1196.200684 732.865845,1196.200684 707.813965,1196.200684 
	C702.588318,1208.646484 698.401917,1220.604614 692.720581,1231.804321 
	C668.126892,1280.286011 638.652466,1325.881958 609.186096,1371.469849 
	C608.130554,1373.103027 607.436218,1374.969971 606.208130,1377.472534 
	C602.882935,1373.052490 601.129578,1371.052734 599.740479,1368.825806 
	C579.125061,1335.774292 558.033630,1303.003906 538.160400,1269.510986 
	C524.479431,1246.453979 510.447662,1223.339966 504.164185,1196.310425 
	C477.655945,1196.310425 451.177979,1196.310425 424.558075,1196.310425 
	C425.883942,1201.743774 428.017578,1206.534912 428.055756,1211.342896 
	C428.203674,1229.981689 428.592987,1248.693481 427.208588,1267.252441 
	C424.934631,1297.737793 421.261200,1328.116821 418.341827,1358.556396 
	C415.483154,1388.363403 412.696564,1418.171143 404.794525,1448.183105 
M1151.827881,1009.000000 
	C1151.803589,985.677002 1152.024536,962.350281 1151.670654,939.032288 
	C1151.427246,922.994324 1144.144531,916.140198 1128.150513,915.835876 
	C1120.489624,915.690125 1112.819702,915.919312 1105.162842,915.687561 
	C1096.443970,915.423706 1095.331421,914.086487 1095.668213,905.659302 
	C1095.867676,900.667969 1096.202393,895.674072 1096.177368,890.682800 
	C1095.961792,847.698303 1066.251343,811.112915 1024.467651,801.032654 
	C967.235962,787.225708 913.182556,830.139404 909.695740,882.873108 
	C909.324829,888.481750 909.185425,894.156006 909.578430,899.754944 
	C910.571106,913.899719 909.219910,915.590210 895.357422,915.766418 
	C892.359192,915.804504 889.349182,915.950195 886.363159,915.758484 
	C860.397522,914.090820 855.405151,924.606079 855.631592,945.934448 
	C856.109131,990.909668 855.779968,1035.893555 855.763062,1080.873779 
	C855.761719,1084.536865 855.739868,1088.207886 855.508362,1091.861206 
	C855.185181,1096.963379 852.404480,1099.769531 847.220337,1099.973877 
	C842.893372,1100.144531 838.546936,1100.053467 834.238831,1100.423462 
	C825.381653,1101.184204 822.371948,1104.128662 821.973389,1112.930664 
	C821.642151,1120.245728 822.054016,1127.592163 821.814819,1134.914185 
	C821.554810,1142.875732 825.381287,1147.950928 832.032776,1151.790649 
	C840.716980,1156.803833 849.961060,1158.292236 859.849609,1158.280273 
	C955.807495,1158.164551 1051.765503,1158.211914 1147.723511,1158.204590 
	C1150.388306,1158.204468 1153.056396,1158.184448 1155.717285,1158.056152 
	C1164.731323,1157.621582 1172.339844,1153.553223 1179.516479,1148.554932 
	C1183.634766,1145.686768 1185.475098,1141.424683 1185.560303,1136.503906 
	C1185.692871,1128.844849 1185.954834,1121.167114 1185.578613,1113.525879 
	C1185.136230,1104.540771 1181.645996,1101.304077 1172.475342,1100.429443 
	C1169.827881,1100.177002 1167.149414,1100.261963 1164.486572,1100.155151 
	C1153.531738,1099.715820 1152.151367,1098.280884 1151.865967,1086.966431 
	C1151.798828,1084.302368 1151.831177,1081.635742 1151.830811,1078.970215 
	C1151.827881,1056.313477 1151.828003,1033.656738 1151.827881,1009.000000 
M1305.364258,1234.800171 
	C1315.404785,1249.614624 1336.669189,1254.166504 1354.100342,1245.173340 
	C1361.240723,1241.489624 1366.387329,1236.614990 1366.426636,1227.602051 
	C1366.467773,1218.144165 1360.974854,1212.711914 1353.503174,1209.291504 
	C1341.521118,1203.806519 1329.228882,1203.794067 1316.966553,1209.272339 
	C1307.757568,1213.386353 1300.898438,1223.258423 1305.364258,1234.800171 
M1206.998047,1857.121948 
	C1206.998047,1857.121948 1206.961792,1857.016235 1206.998047,1857.121948 
z"/>
<path fill="#844092" opacity="1.000000" stroke="none" 
	d="
M1332.187622,1852.155029 
	C1332.229370,1856.478638 1331.799438,1860.870605 1332.415039,1865.110840 
	C1333.548584,1872.917847 1339.244385,1876.283936 1346.177979,1872.495605 
	C1352.218384,1869.195435 1357.504395,1864.405762 1362.825684,1859.920532 
	C1373.317993,1851.077148 1373.232666,1850.975830 1381.416504,1861.509277 
	C1389.288452,1871.641479 1398.446655,1874.614868 1410.552979,1870.347168 
	C1415.855957,1868.477783 1421.160400,1866.180664 1425.885498,1863.169556 
	C1484.343140,1825.917603 1541.698120,1787.017822 1597.429321,1745.803101 
	C1652.339355,1705.195312 1706.761230,1663.926636 1761.335815,1622.866577 
	C1771.183838,1615.457520 1780.699341,1607.607788 1790.445068,1600.060913 
	C1793.524414,1597.676270 1796.853760,1595.614502 1801.839600,1592.187988 
	C1801.839600,1599.851318 1801.839600,1605.542480 1801.839600,1611.233521 
	C1802.593994,1611.348877 1803.348267,1611.464233 1804.102661,1611.579468 
	C1807.265991,1602.787476 1810.429443,1593.995483 1813.679565,1584.962524 
	C1816.639648,1585.678711 1818.243774,1585.932129 1819.755005,1586.454224 
	C1830.256104,1590.082031 1835.782715,1588.908936 1842.536011,1580.277100 
	C1847.862305,1573.468994 1852.450073,1566.080078 1857.310913,1558.911865 
	C1872.792969,1536.080444 1891.953491,1516.761353 1913.693604,1499.924072 
	C1915.923950,1498.196655 1918.553711,1496.984741 1921.381104,1495.306396 
	C1923.888550,1500.141235 1921.474976,1503.430176 1920.183960,1506.519165 
	C1908.237915,1535.103149 1896.675659,1563.868408 1883.882080,1592.072876 
	C1860.297729,1644.067383 1832.479736,1693.811646 1798.947510,1740.040527 
	C1779.411133,1766.974243 1757.745117,1792.363770 1737.018921,1818.433472 
	C1734.738525,1821.301514 1732.427490,1824.155151 1729.970825,1826.870728 
	C1726.248901,1830.984985 1724.523071,1835.640747 1723.995483,1841.258789 
	C1723.377441,1847.838745 1722.056274,1854.473267 1720.072021,1860.779663 
	C1715.737671,1874.555176 1706.135376,1882.411133 1691.576904,1883.438599 
	C1684.608154,1883.930420 1677.499878,1883.053101 1670.617432,1883.989990 
	C1663.822388,1884.915039 1656.783569,1886.408081 1650.658203,1889.338257 
	C1641.563477,1893.688721 1640.397339,1898.635742 1644.067017,1908.271851 
	C1644.777954,1910.138550 1645.569214,1911.974731 1646.285278,1914.783691 
	C1646.247070,1915.742432 1645.848389,1916.211182 1645.848389,1916.211182 
	C1629.871826,1903.411255 1612.725220,1904.651245 1594.981201,1911.805542 
	C1589.426270,1914.045288 1583.548950,1915.500488 1578.040894,1917.837158 
	C1571.842041,1920.466553 1570.590576,1924.076050 1574.415039,1929.622925 
	C1577.595215,1934.235107 1581.873779,1938.089355 1585.661255,1942.283325 
	C1595.085571,1952.719482 1600.969604,1964.808838 1602.365234,1978.872437 
	C1602.637695,1981.617798 1602.006958,1984.453003 1601.706787,1988.366577 
	C1593.584839,1984.326904 1589.820557,1977.855469 1584.697388,1972.932129 
	C1581.344727,1969.710327 1578.505371,1965.955933 1575.169556,1962.714600 
	C1569.497192,1957.202515 1568.087891,1956.739990 1561.421509,1961.498047 
	C1552.502686,1967.864136 1543.368652,1974.254272 1535.715088,1982.004761 
	C1514.891357,2003.092529 1494.807007,2024.909790 1474.407104,2046.416504 
	C1470.057007,2051.002686 1467.980713,2056.469971 1467.886963,2062.712402 
	C1467.796875,2068.709229 1467.843872,2074.707520 1467.801880,2080.705322 
	C1467.731934,2090.667969 1466.269409,2092.143066 1456.101685,2092.117188 
	C1449.439331,2092.100098 1442.777832,2091.854492 1436.115112,2091.790039 
	C1433.452759,2091.764404 1430.767944,2091.771729 1428.128296,2092.072021 
	C1416.796509,2093.362061 1410.274780,2098.800781 1408.387939,2109.973145 
	C1407.068359,2117.787354 1407.009888,2125.837891 1406.737793,2133.794922 
	C1406.626099,2137.065186 1408.238647,2141.311523 1404.441162,2142.608398 
	C1401.802979,2143.509277 1397.776123,2142.560791 1395.231323,2141.017578 
	C1391.045288,2138.479004 1387.196899,2135.122070 1383.860718,2131.506104 
	C1378.902832,2126.132568 1374.692017,2120.076416 1369.840820,2114.596436 
	C1363.851685,2107.831299 1356.541870,2105.384033 1347.358398,2107.483887 
	C1326.271973,2112.306152 1304.686401,2115.107178 1284.506836,2123.484863 
	C1282.662231,2124.250977 1280.815186,2125.011963 1278.983521,2125.807861 
	C1274.089600,2127.935059 1271.481689,2131.238281 1273.317261,2136.841553 
	C1273.521606,2137.465332 1273.563599,2138.152344 1273.614258,2138.815186 
	C1274.247681,2147.110352 1271.384399,2151.067383 1263.312256,2151.376221 
	C1254.651245,2151.708252 1246.174927,2150.677734 1238.225830,2146.314941 
	C1225.388794,2139.269531 1212.492798,2132.253662 1199.212402,2126.110107 
	C1175.432495,2115.109375 1150.788818,2112.334717 1125.187256,2119.607910 
	C1120.669067,2120.891602 1115.138184,2120.747559 1110.591309,2119.451416 
	C1077.731689,2110.085938 1044.229492,2105.615234 1010.170044,2103.400391 
	C967.758240,2100.642090 925.646606,2103.507568 883.526611,2107.373047 
	C862.968262,2109.259521 842.482849,2111.937744 821.961609,2114.232178 
	C806.322388,2115.980957 805.895081,2115.440674 807.126404,2100.031982 
	C807.423889,2096.309082 806.567017,2092.493896 806.172302,2087.926758 
	C803.586121,2088.719727 802.221191,2088.818604 801.247742,2089.487305 
	C793.024170,2095.135498 785.293396,2094.311523 777.199585,2088.779053 
	C747.979248,2068.806152 716.624329,2052.541504 685.200806,2036.411621 
	C664.161926,2025.612305 643.102600,2014.849731 622.182129,2003.824707 
	C617.297119,2001.250366 612.502869,1999.909058 606.957581,2000.120117 
	C576.280518,2001.288086 547.406494,1994.255371 520.402100,1979.880127 
	C513.108337,1975.997437 505.855225,1971.479492 499.804535,1965.923340 
	C480.300171,1948.013184 457.116364,1940.698975 431.248260,1940.299561 
	C420.253967,1940.129883 409.241669,1939.905396 398.260742,1940.319824 
	C369.094696,1941.420410 344.224762,1930.647583 321.816223,1913.092773 
	C304.201843,1899.293579 291.338257,1881.598511 280.824097,1862.017456 
	C266.780396,1835.863281 258.908752,1807.728394 253.911026,1778.687622 
	C252.115860,1768.256226 248.314590,1758.882568 241.640503,1750.652222 
	C236.886124,1744.789185 231.111069,1739.947144 223.770737,1738.541016 
	C216.624908,1737.172363 214.047470,1732.827393 211.992783,1726.756836 
	C205.371094,1707.193970 198.705353,1687.637329 191.552536,1668.264404 
	C170.648743,1611.647827 145.575409,1556.787598 121.072357,1501.684570 
	C105.101196,1465.767944 89.438026,1429.711914 73.944572,1393.586426 
	C67.586464,1378.761475 64.380119,1363.096069 64.238708,1346.901367 
	C64.131126,1334.580322 63.850933,1322.247925 64.249504,1309.940186 
	C64.490829,1302.487915 65.516113,1302.016357 72.517654,1301.903564 
	C86.935303,1301.671265 92.135155,1296.592285 89.647446,1282.015747 
	C85.897301,1260.041992 81.487000,1238.115967 75.977379,1216.521851 
	C66.644539,1179.942871 52.828148,1144.901733 36.537048,1110.872314 
	C28.343086,1093.756470 19.722780,1076.841064 11.045050,1059.963623 
	C8.951974,1055.892700 5.865653,1052.332397 2.618052,1048.268677 
	C2.000000,1045.222168 2.000000,1042.444458 2.000002,1038.833252 
	C3.434898,1033.976562 5.534084,1030.060059 6.201930,1025.913086 
	C12.876159,984.469543 19.099754,942.952881 25.880119,901.527100 
	C32.667953,860.055603 40.876217,818.910095 55.613987,779.333984 
	C68.790215,743.951172 87.123947,711.559631 112.938004,684.014832 
	C131.813141,663.874084 152.046539,644.978882 172.097672,625.974976 
	C193.116058,606.054443 214.465851,586.512634 233.566650,564.656494 
	C244.068085,552.640198 251.502563,539.109619 256.466431,524.035706 
	C270.635712,481.007477 269.595428,486.035614 298.690857,456.750305 
	C322.182953,433.104919 345.278534,409.032166 369.492828,386.146545 
	C397.074219,360.078613 425.529755,334.923279 453.949280,309.759705 
	C467.510864,297.751862 483.977814,294.934204 501.692413,296.810974 
	C516.253052,298.353607 530.892212,299.175415 545.506042,300.178802 
	C548.478821,300.382904 551.492676,299.910156 554.489563,299.856537 
	C561.300049,299.734650 565.289307,296.590179 567.689270,289.955475 
	C576.470520,265.679565 592.565491,246.858673 613.049744,231.643829 
	C635.863281,214.698898 661.431885,208.280930 689.487732,213.119720 
	C698.328125,214.644424 706.192200,213.244827 713.067749,207.838821 
	C723.784058,199.412994 734.355713,190.780624 744.637451,181.832153 
	C752.165955,175.279938 758.977783,167.909409 766.414673,161.244629 
	C769.840027,158.174820 773.706726,155.253174 777.883362,153.438507 
	C786.259521,149.799271 791.643677,153.259735 792.014465,162.404907 
	C792.283325,169.036270 791.565063,175.705307 791.353027,182.359634 
	C791.261719,185.225067 791.337769,188.095840 791.337769,192.043472 
	C794.322998,190.964294 796.653931,190.643433 798.348328,189.432159 
	C833.091919,164.594955 871.817444,147.639618 911.380859,132.411667 
	C933.146667,124.033989 955.402832,116.873535 976.902588,107.884010 
	C988.896912,102.868919 998.991028,105.121536 1008.995605,111.286621 
	C1015.205566,115.113289 1020.880066,119.822975 1026.707764,124.250969 
	C1030.419678,127.071312 1033.828247,130.304337 1037.625854,132.995209 
	C1045.387207,138.494720 1053.557495,142.373611 1063.674194,140.776978 
	C1069.869141,139.799271 1071.398926,141.415146 1072.033081,147.726242 
	C1073.265015,159.987473 1074.010986,172.230881 1072.029907,184.549850 
	C1069.328125,201.349594 1060.492676,212.417038 1043.588501,215.142517 
	C1029.563965,217.403717 1014.974609,218.463623 1000.859375,217.311737 
	C980.447754,215.646027 960.237122,216.848022 939.999329,218.095566 
	C877.505005,221.947952 817.779358,237.147919 760.344666,262.080200 
	C707.282227,285.114471 658.030945,315.030334 608.454956,344.423615 
	C586.387756,357.507141 564.360352,370.673615 542.001831,383.245728 
	C518.557129,396.428589 498.124878,413.298553 478.725464,431.741608 
	C457.728027,451.703796 436.028809,470.925842 414.911163,490.763977 
	C370.404480,532.573975 328.047943,576.365784 292.487244,626.259766 
	C247.932404,688.773254 217.508301,757.494324 203.511459,833.066345 
	C199.090897,856.933960 196.793610,881.213623 193.998367,905.359497 
	C188.750061,950.695618 183.827850,996.069580 178.810898,1041.432373 
	C177.089813,1056.994263 175.360626,1072.557251 173.878143,1088.143066 
	C172.728043,1100.234131 169.726349,1111.668457 164.066177,1122.496216 
	C159.285538,1131.641479 154.891876,1141.006958 150.727005,1150.451294 
	C146.182480,1160.756470 145.182648,1171.572632 146.803543,1182.758423 
	C152.872101,1224.636841 158.802826,1266.535522 164.729187,1308.434448 
	C165.220383,1311.907227 165.291077,1315.439331 165.650757,1320.176514 
	C161.757874,1319.253174 159.299576,1318.677002 156.844757,1318.086548 
	C149.074677,1316.217651 143.588867,1318.810669 141.379349,1326.480957 
	C140.227753,1330.478638 139.814331,1335.228149 140.835785,1339.180908 
	C142.225204,1344.557495 144.735794,1349.869019 147.785812,1354.542725 
	C153.331223,1363.040161 158.689453,1363.761963 167.059830,1358.161255 
	C168.430130,1357.244385 169.746658,1356.247070 171.233856,1355.182495 
	C176.947662,1357.058350 178.079590,1362.376587 179.899734,1366.743042 
	C190.413605,1391.964722 200.588440,1417.327271 211.014435,1442.585815 
	C220.430618,1465.398071 229.751541,1488.387817 244.510712,1508.352905 
	C254.782425,1522.247681 266.065338,1535.500854 277.860077,1548.141479 
	C301.713165,1573.705444 325.618042,1599.275269 350.608032,1623.711060 
	C383.940887,1656.304077 418.313232,1687.834595 452.264648,1719.794434 
	C479.669128,1745.591309 507.176453,1771.279297 534.509827,1797.151245 
	C548.056885,1809.973999 561.500061,1822.918701 574.615845,1836.178711 
	C580.092590,1841.715820 585.844727,1844.207764 593.418091,1842.000244 
	C595.013245,1841.535400 596.669922,1841.277222 598.303284,1840.949097 
	C611.630310,1838.271362 625.529846,1836.896729 634.339600,1823.290894 
	C640.210571,1831.882812 637.723572,1838.736328 633.285278,1844.577759 
	C628.958069,1850.273193 623.329102,1854.979492 617.502869,1860.901367 
	C620.278931,1862.955688 622.712830,1865.072144 625.430603,1866.720825 
	C665.700867,1891.149780 708.496704,1909.183838 755.249390,1916.591187 
	C770.685364,1919.036743 786.327576,1920.364990 801.923950,1921.582397 
	C874.511841,1927.248169 946.136414,1938.864380 1016.769775,1956.421265 
	C1028.096436,1959.236572 1038.617310,1959.652100 1050.063477,1956.625366 
	C1080.721191,1948.518311 1112.028687,1943.821533 1143.693237,1941.646118 
	C1148.341553,1941.326782 1152.956787,1940.547363 1157.602783,1940.171265 
	C1165.853271,1939.503540 1171.564453,1934.653564 1177.104126,1929.115723 
	C1182.251709,1923.969482 1187.583862,1918.912964 1193.384277,1914.546875 
	C1197.458496,1911.480103 1199.782715,1908.133179 1200.233643,1903.083740 
	C1200.756592,1897.226685 1201.732788,1891.410278 1202.623047,1884.748291 
	C1206.407471,1886.381348 1208.959351,1887.482666 1211.989258,1888.790161 
	C1217.000122,1879.292969 1210.307373,1871.087402 1209.776611,1860.862793 
	C1217.468628,1865.730103 1221.778076,1871.501343 1226.047607,1877.306763 
	C1230.280029,1883.061768 1234.488647,1888.834229 1239.549072,1895.748779 
	C1242.822998,1891.490112 1244.906006,1888.592896 1247.181641,1885.855713 
	C1253.737671,1877.970337 1256.106323,1877.660278 1264.921509,1883.833374 
	C1266.664551,1875.692749 1268.350952,1867.816772 1269.885498,1860.650146 
	C1275.414673,1859.238647 1276.566650,1862.332031 1278.173828,1864.813965 
	C1279.746338,1867.242432 1281.393799,1869.622437 1282.802734,1871.717773 
	C1288.526855,1871.062866 1288.693970,1866.696533 1290.184937,1863.613159 
	C1295.729614,1852.146606 1299.556152,1850.071045 1312.153442,1851.277222 
	C1318.103638,1851.847046 1324.121338,1851.711426 1331.083252,1851.963867 
	C1332.058105,1852.032227 1332.187622,1852.155029 1332.187622,1852.155029 
M179.913651,1456.506104 
	C184.602615,1469.262817 192.100266,1476.069214 203.657333,1477.638306 
	C203.278488,1476.240479 203.112015,1474.980347 202.609787,1473.872437 
	C197.004044,1461.506470 191.403564,1449.137695 185.681793,1436.825195 
	C182.192200,1429.316284 178.733322,1421.774658 174.793304,1414.500854 
	C172.691544,1410.620605 170.154617,1406.560913 163.796768,1405.875000 
	C164.466202,1408.492310 164.537140,1410.481689 165.428162,1411.985107 
	C173.302856,1425.271606 178.887207,1439.281128 179.913651,1456.506104 
M144.937836,1412.458740 
	C142.279831,1408.114136 138.967239,1407.455444 135.204895,1410.975098 
	C131.814972,1414.146362 131.339935,1417.900146 134.218994,1421.598267 
	C139.087372,1427.851318 144.121048,1433.978149 149.188644,1440.071899 
	C150.434158,1441.569702 152.079071,1442.735352 153.540359,1444.053711 
	C153.891403,1443.736328 154.242432,1443.419067 154.593475,1443.101807 
	C151.574677,1433.346436 148.555878,1423.591064 144.937836,1412.458740 
z"/>
<path fill="#844092" opacity="1.000000" stroke="none" 
	d="
M2002.000000,931.200012 
	C1996.136597,950.720947 1989.334473,969.208191 1984.603760,988.211121 
	C1974.524780,1028.698975 1969.025757,1069.985352 1965.644287,1111.555542 
	C1965.002808,1119.440308 1964.082397,1127.302368 1963.290649,1135.174927 
	C1962.586792,1135.296753 1961.882812,1135.418457 1961.178955,1135.540283 
	C1960.282104,1131.928711 1959.123413,1128.359375 1958.531860,1124.698486 
	C1955.108887,1103.517090 1955.031372,1082.221558 1957.122192,1060.932495 
	C1959.042603,1041.379272 1961.426758,1021.871765 1963.519775,1002.334717 
	C1963.795410,999.761780 1963.557617,997.133850 1963.557617,992.324890 
	C1959.857666,995.226135 1957.545044,997.269409 1955.010010,998.984070 
	C1947.653931,1003.959473 1940.531128,1002.448059 1936.841919,994.319519 
	C1934.853882,989.939209 1933.885010,984.704407 1933.935181,979.870422 
	C1934.048096,968.959045 1930.369385,961.267395 1920.830566,954.885193 
	C1902.286621,942.478027 1888.724976,924.813965 1876.693237,906.405334 
	C1865.418823,889.155701 1855.839111,870.793701 1845.627808,852.856262 
	C1841.332031,845.310242 1840.646362,837.770630 1843.453003,829.039185 
	C1849.968384,808.769165 1851.742676,788.030945 1846.342285,766.991394 
	C1841.586792,748.463806 1831.612793,733.631409 1816.250732,722.378418 
	C1811.953125,719.230225 1807.462646,716.343994 1803.041748,713.365479 
	C1787.325439,702.776672 1776.390747,688.363220 1769.586426,670.834229 
	C1763.680908,655.620300 1757.892212,640.348755 1752.565308,624.925354 
	C1745.439087,604.292053 1741.718018,583.092651 1743.483398,561.127380 
	C1743.708618,558.324890 1742.968628,555.444824 1742.633789,552.191223 
	C1735.219727,551.802917 1730.563354,556.059082 1725.233643,558.342224 
	C1718.211182,561.350464 1711.339111,564.777649 1704.153442,567.320923 
	C1692.377563,571.489014 1681.459961,569.780823 1671.079346,562.294617 
	C1641.626831,541.054321 1611.785156,520.353882 1582.334595,499.110931 
	C1509.634155,446.671448 1436.744263,394.518524 1359.757935,348.421082 
	C1345.470093,339.865967 1331.028931,331.541565 1316.367310,323.652069 
	C1312.160278,321.388275 1306.973633,320.152374 1302.166260,319.925385 
	C1269.914307,318.402557 1238.660034,312.754456 1209.113403,299.167084 
	C1191.010132,290.842102 1175.081055,279.471741 1161.665894,264.817810 
	C1153.385864,255.773193 1148.007568,245.261414 1148.271362,232.388153 
	C1148.680542,212.430725 1161.068726,195.791489 1180.752563,192.283493 
	C1200.763672,188.717178 1221.146240,187.630325 1241.258179,192.294067 
	C1246.237793,193.448776 1249.482788,192.723495 1252.228394,188.396210 
	C1254.179199,185.321762 1256.510254,182.428528 1259.012695,179.776306 
	C1264.742432,173.703369 1271.715576,170.252411 1280.271484,170.289505 
	C1286.934204,170.318375 1293.600220,170.176514 1300.260742,169.973907 
	C1317.231934,169.457657 1334.217651,168.095596 1351.166748,168.470123 
	C1382.162109,169.155060 1412.960327,171.650345 1443.086426,180.165604 
	C1487.486938,192.715500 1530.595459,208.531616 1571.453125,229.986435 
	C1631.011108,261.261078 1684.358032,300.759430 1727.641724,352.678131 
	C1738.454346,365.647827 1747.236328,380.396484 1756.243652,394.771088 
	C1815.163208,488.801147 1873.848145,582.978333 1932.755127,677.016296 
	C1937.281494,684.242004 1940.352295,691.650757 1941.354126,700.134888 
	C1947.330688,750.743958 1954.175171,801.263123 1959.265137,851.959412 
	C1962.187744,881.069397 1962.360229,910.456238 1963.740112,939.719849 
	C1963.912720,943.379150 1963.619629,947.078491 1964.027832,950.704651 
	C1964.750977,957.127808 1968.518311,958.715149 1973.471436,954.365295 
	C1976.393311,951.799194 1978.603638,948.297852 1980.706055,944.948547 
	C1985.910522,936.657654 1991.683716,929.014893 2001.400391,924.315674 
	C2002.000000,926.133362 2002.000000,928.266663 2002.000000,931.200012 
z"/>
<path fill="#BE55D4" opacity="1.000000" stroke="none" 
	d="
M744.436768,1449.953857 
	C745.366821,1392.483887 735.151123,1336.182129 728.001587,1278.939941 
	C722.178040,1279.843872 720.946716,1283.707520 719.198364,1286.528442 
	C702.530029,1313.421997 685.902405,1340.342651 669.525696,1367.414429 
	C659.700134,1383.656616 650.075500,1400.034424 640.903748,1416.651123 
	C637.255554,1423.260620 632.697754,1426.474487 625.126160,1426.331787 
	C611.468323,1426.074463 597.799438,1426.143066 584.139709,1426.362183 
	C577.660034,1426.466064 573.878174,1423.477173 570.684937,1418.025757 
	C550.314697,1383.251221 529.797180,1348.561157 509.068298,1313.999023 
	C502.736145,1303.441284 495.621124,1293.350952 488.774780,1283.106445 
	C487.722137,1281.531372 486.182800,1280.281616 483.382019,1277.297607 
	C481.537659,1288.328979 479.625092,1297.639526 478.472748,1307.043335 
	C474.346039,1340.719360 470.095551,1374.388672 466.700958,1408.141846 
	C465.373718,1421.339111 466.187561,1434.751587 466.050751,1449.304199 
	C466.075256,1450.542236 466.081116,1451.187378 466.081116,1451.187256 
	C446.734100,1451.326294 427.387115,1451.465332 407.016479,1450.848145 
	C405.823395,1449.175903 405.653931,1448.259766 405.484467,1447.343506 
	C412.696564,1418.171143 415.483154,1388.363403 418.341827,1358.556396 
	C421.261200,1328.116821 424.934631,1297.737793 427.208588,1267.252441 
	C428.592987,1248.693481 428.203674,1229.981689 428.055756,1211.342896 
	C428.017578,1206.534912 425.883942,1201.743774 424.558075,1196.310425 
	C451.177979,1196.310425 477.655945,1196.310425 504.164185,1196.310425 
	C510.447662,1223.339966 524.479431,1246.453979 538.160400,1269.510986 
	C558.033630,1303.003906 579.125061,1335.774292 599.740479,1368.825806 
	C601.129578,1371.052734 602.882935,1373.052490 606.208130,1377.472534 
	C607.436218,1374.969971 608.130554,1373.103027 609.186096,1371.469849 
	C638.652466,1325.881958 668.126892,1280.286011 692.720581,1231.804321 
	C698.401917,1220.604614 702.588318,1208.646484 707.813965,1196.200684 
	C732.865845,1196.200684 759.061951,1196.200684 785.624573,1196.200684 
	C778.823914,1219.606812 781.509216,1242.791260 783.377380,1265.853760 
	C785.819702,1296.004761 788.745911,1326.121704 791.880676,1356.209839 
	C795.082764,1386.943237 796.867371,1417.911987 805.535339,1447.843262 
	C805.694519,1448.393066 805.328674,1449.094849 804.979492,1450.917236 
	C786.173035,1452.564941 767.006897,1451.324341 746.721436,1451.253418 
	C745.215393,1450.546753 744.843567,1450.229858 744.436768,1449.953857 
z"/>
<path fill="#4343A2" opacity="1.000000" stroke="none" 
	d="
M1151.827515,1010.000000 
	C1151.828003,1033.656738 1151.827881,1056.313477 1151.830811,1078.970215 
	C1151.831177,1081.635742 1151.798828,1084.302368 1151.865967,1086.966431 
	C1152.151367,1098.280884 1153.531738,1099.715820 1164.486572,1100.155151 
	C1167.149414,1100.261963 1169.827881,1100.177002 1172.475342,1100.429443 
	C1181.645996,1101.304077 1185.136230,1104.540771 1185.578613,1113.525879 
	C1185.954834,1121.167114 1185.692871,1128.844849 1185.560303,1136.503906 
	C1185.475098,1141.424683 1183.634766,1145.686768 1179.516479,1148.554932 
	C1172.339844,1153.553223 1164.731323,1157.621582 1155.717285,1158.056152 
	C1153.056396,1158.184448 1150.388306,1158.204468 1147.723511,1158.204590 
	C1051.765503,1158.211914 955.807495,1158.164551 859.849609,1158.280273 
	C849.961060,1158.292236 840.716980,1156.803833 832.032776,1151.790649 
	C825.381287,1147.950928 821.554810,1142.875732 821.814819,1134.914185 
	C822.054016,1127.592163 821.642151,1120.245728 821.973389,1112.930664 
	C822.371948,1104.128662 825.381653,1101.184204 834.238831,1100.423462 
	C838.546936,1100.053467 842.893372,1100.144531 847.220337,1099.973877 
	C852.404480,1099.769531 855.185181,1096.963379 855.508362,1091.861206 
	C855.739868,1088.207886 855.761719,1084.536865 855.763062,1080.873779 
	C855.779968,1035.893555 856.109131,990.909668 855.631592,945.934448 
	C855.405151,924.606079 860.397522,914.090820 886.363159,915.758484 
	C889.349182,915.950195 892.359192,915.804504 895.357422,915.766418 
	C909.219910,915.590210 910.571106,913.899719 909.578430,899.754944 
	C909.185425,894.156006 909.324829,888.481750 909.695740,882.873108 
	C913.182556,830.139404 967.235962,787.225708 1024.467651,801.032654 
	C1066.251343,811.112915 1095.961792,847.698303 1096.177368,890.682800 
	C1096.202393,895.674072 1095.867676,900.667969 1095.668213,905.659302 
	C1095.331421,914.086487 1096.443970,915.423706 1105.162842,915.687561 
	C1112.819702,915.919312 1120.489624,915.690125 1128.150513,915.835876 
	C1144.144531,916.140198 1151.427246,922.994324 1151.670654,939.032288 
	C1152.024536,962.350281 1151.803589,985.677002 1151.827515,1010.000000 
M969.718079,1103.008179 
	C973.805054,1106.985474 978.779663,1108.221924 984.360718,1108.162354 
	C996.692261,1108.030518 1009.033752,1108.356689 1021.354248,1107.963501 
	C1025.144165,1107.842651 1029.467773,1106.846313 1032.505737,1104.745239 
	C1037.511963,1101.282715 1042.719849,1100.209717 1048.502930,1100.217285 
	C1067.835815,1100.242310 1087.168823,1100.208374 1106.501709,1100.192993 
	C1110.168213,1100.190063 1113.837280,1100.250488 1117.500854,1100.140747 
	C1128.157104,1099.821655 1129.753540,1098.278442 1130.133301,1087.972900 
	C1130.243774,1084.976440 1130.192139,1081.973633 1130.192261,1078.973755 
	C1130.195312,1038.307861 1130.196167,997.641968 1130.190796,956.976074 
	C1130.190430,953.643066 1130.272339,950.302795 1130.087646,946.978577 
	C1129.616455,938.497131 1127.821777,936.601746 1119.080078,936.333008 
	C1110.755859,936.077087 1102.416748,936.334106 1094.084351,936.303711 
	C1089.033936,936.285278 1085.063965,938.119385 1082.293457,942.486877 
	C1080.868896,944.732605 1079.273438,946.892090 1077.566650,948.932800 
	C1066.397705,962.287048 1065.040039,959.999817 1079.401855,974.024841 
	C1089.074829,983.470947 1097.697632,993.965759 1101.569336,1006.855225 
	C1105.955688,1021.458252 1108.463257,1036.648071 1111.314697,1051.672607 
	C1111.962158,1055.084229 1111.141479,1059.004272 1110.142090,1062.442017 
	C1108.822144,1066.982666 1105.459229,1069.651001 1100.443604,1069.542358 
	C1095.576538,1069.437012 1091.900635,1066.357788 1090.846924,1061.011230 
	C1090.207031,1057.765625 1090.326294,1054.376953 1089.984009,1051.065063 
	C1087.532471,1027.350342 1081.413330,1005.193665 1063.363037,988.043518 
	C1056.258789,981.293518 1049.429688,974.970276 1038.060059,977.644531 
	C1032.272217,979.005981 1028.319702,975.777344 1027.094238,971.255066 
	C1025.691895,966.079773 1027.715698,962.063049 1031.977051,959.200928 
	C1035.568481,956.788818 1039.484375,954.854919 1043.046387,952.403809 
	C1083.331421,924.681274 1088.232422,865.976501 1045.421387,834.056335 
	C1021.340332,816.101379 994.595825,814.581604 968.193787,829.058838 
	C941.417358,843.741333 928.328613,867.540222 930.701233,897.777283 
	C932.992920,926.981201 948.781982,947.984314 976.114990,959.661438 
	C979.177124,960.969666 982.439758,961.891479 985.334717,963.489990 
	C990.561768,966.376221 992.613647,971.242065 991.077759,975.998169 
	C989.407288,981.171387 984.467896,984.016724 978.233643,982.659973 
	C973.706116,981.674683 969.242310,980.107910 964.979492,978.268616 
	C959.733032,976.004944 955.018127,976.583069 951.153381,980.490417 
	C943.917969,987.805481 936.640564,995.143555 930.145935,1003.096924 
	C927.337952,1006.535706 925.603333,1011.381409 924.820435,1015.840637 
	C922.749146,1027.638306 921.437988,1039.570679 919.885559,1051.457397 
	C919.541016,1054.095947 919.707153,1056.818970 919.188416,1059.413208 
	C918.000244,1065.355591 914.200867,1068.839844 909.227905,1068.947754 
	C903.967468,1069.062134 899.697876,1065.182129 898.761475,1058.833618 
	C898.280762,1055.574951 898.292358,1052.159302 898.651489,1048.877075 
	C899.702209,1039.274536 901.433411,1029.733765 902.176025,1020.113220 
	C903.445740,1003.663879 910.959534,990.257324 921.516235,978.229248 
	C924.582214,974.735901 928.083679,971.614502 931.481323,968.424561 
	C937.683167,962.601868 937.820068,961.816650 932.924805,955.237549 
	C929.743896,950.962463 926.267395,946.886475 923.352966,942.439758 
	C920.476013,938.050171 916.590210,936.286438 911.567200,936.301697 
	C903.234863,936.327026 894.894165,936.064575 886.572388,936.358643 
	C878.554993,936.641846 876.849609,938.593872 876.314392,946.680237 
	C876.182495,948.672974 876.219910,950.678528 876.219727,952.678162 
	C876.215393,996.343994 876.213074,1040.009888 876.226562,1083.675659 
	C876.227417,1086.340454 876.281738,1089.010498 876.452881,1091.668945 
	C876.778564,1096.728638 879.361328,1099.697998 884.586975,1099.954712 
	C887.581360,1100.101807 890.582214,1100.178223 893.580261,1100.181763 
	C913.913208,1100.205566 934.247375,1100.085083 954.578186,1100.295044 
	C959.157654,1100.342407 963.725647,1101.510864 969.718079,1103.008179 
M993.011719,1130.176147 
	C985.687500,1130.145508 978.340759,1130.445190 971.048157,1129.949463 
	C967.204285,1129.687988 962.673889,1129.031250 959.833069,1126.797974 
	C954.682495,1122.749023 949.252625,1121.754028 943.108887,1121.770020 
	C914.144104,1121.845703 885.178955,1121.789917 856.213989,1121.823853 
	C853.559387,1121.826904 850.738037,1121.636230 848.303711,1122.455566 
	C846.362488,1123.108887 843.778992,1124.973022 843.490295,1126.646240 
	C843.109131,1128.855103 844.014160,1132.114868 845.601135,1133.625732 
	C847.613953,1135.541992 850.770020,1136.609375 853.609375,1137.212280 
	C856.821167,1137.894287 860.228333,1137.795288 863.550659,1137.796143 
	C956.771423,1137.820557 1049.992188,1137.819702 1143.212891,1137.791016 
	C1146.534424,1137.790039 1149.951904,1137.886963 1153.148560,1137.161499 
	C1155.963257,1136.522705 1158.963745,1135.296631 1161.115723,1133.441040 
	C1165.302856,1129.830811 1163.920288,1124.179810 1158.691650,1122.553711 
	C1156.824463,1121.973022 1154.749023,1121.876953 1152.768188,1121.874878 
	C1121.140137,1121.842773 1089.511230,1121.767700 1057.884888,1122.004028 
	C1054.449585,1122.029663 1050.358398,1123.071167 1047.742554,1125.129517 
	C1042.622681,1129.158447 1037.105713,1130.209961 1030.963867,1130.173218 
	C1018.978821,1130.101685 1006.992981,1130.167847 993.011719,1130.176147 
z"/>
<path fill="#BE55D4" opacity="1.000000" stroke="none" 
	d="
M1264.253174,1378.471558 
	C1264.974609,1401.004761 1265.696045,1423.538086 1266.453735,1447.202148 
	C1247.755615,1447.969238 1229.318848,1447.984741 1209.382324,1447.070557 
	C1210.469360,1442.020264 1211.185913,1437.913086 1212.246826,1433.896729 
	C1217.112793,1415.475952 1220.553711,1396.827148 1219.513306,1377.711182 
	C1219.083130,1369.807495 1217.957031,1361.754639 1215.768799,1354.167358 
	C1208.226685,1328.018677 1186.564575,1317.783081 1161.662476,1320.823120 
	C1145.511230,1322.794678 1132.150269,1330.947876 1120.776001,1342.145752 
	C1118.267944,1344.614868 1116.550781,1349.143066 1116.560791,1352.717285 
	C1116.645508,1382.980469 1117.220337,1413.242432 1117.632568,1443.505005 
	C1117.682007,1447.137573 1117.639282,1450.771484 1117.639282,1455.501953 
	C1098.104126,1457.061646 1078.737915,1456.276489 1059.100708,1456.065918 
	C1060.793213,1437.238770 1062.776611,1419.761475 1063.847900,1402.228394 
	C1065.652344,1372.693848 1067.166260,1343.134399 1068.256470,1313.565430 
	C1069.138916,1289.630371 1069.678589,1265.661499 1069.460205,1241.715942 
	C1069.351562,1229.820923 1067.197266,1217.944580 1065.927490,1204.607666 
	C1065.992676,1202.287231 1066.098877,1201.418945 1066.205078,1200.550659 
	C1086.419434,1200.451782 1106.687500,1199.110229 1126.881592,1202.683716 
	C1119.772949,1235.381348 1119.170410,1268.089111 1117.741577,1302.616089 
	C1122.739380,1300.250488 1125.898804,1298.661987 1129.131470,1297.239502 
	C1155.375488,1285.689453 1182.695190,1281.195312 1210.993530,1286.593140 
	C1244.221924,1292.931519 1264.604492,1317.849487 1265.607788,1352.208618 
	C1265.821655,1359.529907 1265.539917,1366.865723 1265.105225,1375.487549 
	C1264.448364,1377.311035 1264.291382,1377.874756 1264.253174,1378.471558 
z"/>
<path fill="#BE55D4" opacity="1.000000" stroke="none" 
	d="
M968.015259,1454.021362 
	C971.373474,1449.789062 974.103210,1445.349976 972.766357,1438.336426 
	C969.468384,1438.942139 966.331787,1439.351318 963.280457,1440.105347 
	C940.786926,1445.662842 918.005066,1447.729370 894.912292,1445.654175 
	C881.274109,1444.428467 867.696655,1442.413208 855.265625,1436.363037 
	C849.057739,1433.341797 842.881653,1429.639282 837.810364,1425.016968 
	C823.662292,1412.122314 824.434448,1391.011719 838.737976,1378.346924 
	C849.550293,1368.772949 862.484985,1363.292969 876.236816,1360.500122 
	C894.459167,1356.799072 912.915283,1354.039673 931.385803,1351.840088 
	C944.566101,1350.270630 957.937073,1350.317627 971.218567,1349.566284 
	C973.140137,1349.457642 975.037354,1348.917969 977.275146,1348.518921 
	C978.964661,1339.271729 979.288696,1330.269043 977.082947,1321.563354 
	C974.328552,1310.692017 966.663452,1303.527100 956.038147,1300.773438 
	C932.764526,1294.742065 911.725464,1299.515503 894.220703,1316.412720 
	C890.276917,1320.219727 887.830200,1325.577637 883.838135,1331.489624 
	C870.854065,1329.739868 856.861755,1327.854248 842.698486,1325.945435 
	C842.738892,1317.661011 847.309937,1312.490356 850.945679,1307.154907 
	C858.999451,1295.336060 869.990845,1286.567993 882.789246,1280.497192 
	C912.662170,1266.327637 943.885193,1262.219482 976.112427,1270.577881 
	C984.038574,1272.633667 991.902100,1276.153198 998.852295,1280.504517 
	C1015.006287,1290.618042 1024.799927,1305.310181 1025.763184,1324.750366 
	C1026.305908,1335.700806 1025.707520,1346.705811 1025.693604,1357.686157 
	C1025.664795,1380.345581 1025.450928,1403.008545 1025.792725,1425.662720 
	C1025.936523,1435.196045 1027.295044,1444.711060 1028.215088,1455.577148 
	C1008.490662,1455.577148 989.270386,1455.577148 969.113342,1455.141602 
	C968.176514,1454.706177 968.015259,1454.021362 968.015259,1454.021362 
M954.999695,1412.245117 
	C960.483826,1410.905640 966.097229,1409.928345 971.385742,1408.040771 
	C973.377563,1407.329956 975.682617,1404.673706 975.996338,1402.621582 
	C976.880615,1396.838013 976.805542,1390.907837 977.179565,1383.661621 
	C971.599182,1383.444214 966.783569,1383.148315 961.966003,1383.109131 
	C958.985596,1383.084839 956.002380,1383.457153 953.019836,1383.641724 
	C939.426636,1384.482544 925.721619,1384.525146 912.276062,1386.414917 
	C901.877197,1387.876587 891.459534,1390.785889 881.693970,1394.670288 
	C873.943726,1397.753052 874.149353,1405.147583 881.663330,1408.746460 
	C886.979370,1411.292603 892.917297,1412.877441 898.750854,1413.943237 
	C916.983459,1417.273682 935.162537,1415.537964 954.999695,1412.245117 
z"/>
<path fill="#BE55D4" opacity="1.000000" stroke="none" 
	d="
M1400.419067,1449.942627 
	C1404.206177,1428.854370 1406.501099,1407.629028 1406.460693,1384.917969 
	C1406.881592,1383.158936 1406.992188,1382.627686 1406.975830,1382.070190 
	C1408.480835,1349.242798 1410.551270,1316.396484 1402.976074,1282.979736 
	C1422.469482,1281.235474 1441.184937,1282.939575 1460.404785,1284.460815 
	C1461.183472,1288.172363 1461.914062,1291.654907 1462.952393,1296.604004 
	C1466.787842,1294.600952 1470.176025,1292.853638 1473.544556,1291.069092 
	C1505.830322,1273.963989 1538.817505,1273.771851 1571.539062,1288.792114 
	C1592.832520,1298.566650 1603.625610,1316.803833 1603.438599,1340.049683 
	C1603.235474,1365.290283 1601.071777,1390.509644 1600.142944,1415.752197 
	C1599.679199,1428.354492 1600.062134,1440.987915 1600.062134,1455.023804 
	C1579.971924,1456.304565 1560.622559,1455.448853 1540.334961,1455.575684 
	C1541.809204,1447.710571 1543.246216,1441.317383 1544.177368,1434.851440 
	C1547.840454,1409.416016 1547.804810,1383.787964 1547.848999,1358.172363 
	C1547.854126,1355.182373 1547.706787,1352.166138 1547.308716,1349.205444 
	C1542.844482,1316.000122 1510.229126,1308.595215 1488.474854,1319.159668 
	C1482.851318,1321.890625 1477.845947,1325.944702 1472.692383,1329.583252 
	C1462.557983,1336.739258 1457.435669,1345.660889 1458.029297,1359.019653 
	C1459.121582,1383.601440 1458.260010,1408.266846 1458.404175,1432.896240 
	C1458.436890,1438.481201 1459.251953,1444.061646 1459.791992,1450.688843 
	C1450.269653,1452.552246 1441.017700,1451.441162 1431.880493,1451.626587 
	C1422.558716,1451.815918 1413.229126,1451.626831 1402.729248,1451.255371 
	C1401.211060,1450.545288 1400.832275,1450.223755 1400.419067,1449.942627 
z"/>
<path fill="#BE55D4" opacity="1.000000" stroke="none" 
	d="
M1364.599365,1290.654541 
	C1362.460571,1302.043335 1358.932495,1313.373535 1358.448120,1324.832275 
	C1357.086670,1357.052002 1356.691895,1389.323242 1356.543579,1421.577148 
	C1356.496704,1431.787476 1358.426880,1442.006836 1359.572510,1453.419800 
	C1340.091797,1455.274414 1320.743774,1454.004761 1300.557983,1454.249634 
	C1301.997437,1444.641235 1303.726562,1436.268921 1304.430420,1427.811157 
	C1306.606445,1401.663330 1308.734497,1375.502197 1310.190186,1349.307861 
	C1310.960815,1335.439087 1310.581543,1321.482056 1310.149658,1307.582642 
	C1309.967896,1301.727783 1308.309448,1295.918701 1307.302002,1289.969360 
	C1308.360718,1289.453369 1309.210815,1288.681641 1310.067139,1288.674683 
	C1327.373047,1288.534424 1344.679443,1288.481812 1363.074951,1289.014893 
	C1364.309204,1289.963501 1364.454224,1290.308960 1364.599365,1290.654541 
z"/>
<path fill="#BD55D3" opacity="1.000000" stroke="none" 
	d="
M1305.023926,1234.079834 
	C1300.898438,1223.258423 1307.757568,1213.386353 1316.966553,1209.272339 
	C1329.228882,1203.794067 1341.521118,1203.806519 1353.503174,1209.291504 
	C1360.974854,1212.711914 1366.467773,1218.144165 1366.426636,1227.602051 
	C1366.387329,1236.614990 1361.240723,1241.489624 1354.100342,1245.173340 
	C1336.669189,1254.166504 1315.404785,1249.614624 1305.023926,1234.079834 
z"/>
<path fill="#A059BA" opacity="1.000000" stroke="none" 
	d="
M405.139496,1447.763306 
	C405.653931,1448.259766 405.823395,1449.175903 406.093506,1450.782959 
	C405.727631,1450.376831 405.261078,1449.280029 405.139496,1447.763306 
z"/>
<path fill="#844092" opacity="1.000000" stroke="none" 
	d="
M1646.447021,1915.508667 
	C1646.737549,1915.729248 1646.828003,1916.183716 1646.918335,1916.637939 
	C1646.662354,1916.589966 1646.406372,1916.541992 1645.999390,1916.352539 
	C1645.848389,1916.211182 1646.247070,1915.742432 1646.447021,1915.508667 
z"/>
<path fill="#A059BA" opacity="1.000000" stroke="none" 
	d="
M1065.715332,1200.695679 
	C1066.098877,1201.418945 1065.992676,1202.287231 1065.772217,1203.802246 
	C1065.513794,1203.246338 1065.369629,1202.043457 1065.715332,1200.695679 
z"/>
<path fill="#69648B" opacity="1.000000" stroke="none" 
	d="
M1406.750732,1382.411865 
	C1406.992188,1382.627686 1406.881592,1383.158936 1406.416992,1384.007446 
	C1406.174194,1383.791748 1406.286133,1383.259277 1406.750732,1382.411865 
z"/>
<path fill="#A059BA" opacity="1.000000" stroke="none" 
	d="
M1264.538574,1378.122559 
	C1264.291382,1377.874756 1264.448364,1377.311035 1264.964233,1376.413818 
	C1265.287964,1376.669067 1265.161255,1377.244507 1264.538574,1378.122559 
z"/>
<path fill="#A059BA" opacity="1.000000" stroke="none" 
	d="
M466.162170,1450.231567 
	C466.249115,1449.920898 466.888214,1450.494751 466.888214,1450.494751 
	C466.888214,1450.494751 466.522217,1451.226318 466.301666,1451.206787 
	C466.081116,1451.187378 466.075256,1450.542236 466.162170,1450.231567 
z"/>
<path fill="#A25ABC" opacity="1.000000" stroke="none" 
	d="
M744.495850,1450.375000 
	C744.843567,1450.229858 745.215393,1450.546753 745.787842,1451.185791 
	C745.385071,1451.568604 744.895630,1451.345093 744.495850,1450.375000 
z"/>
<path fill="#A059BA" opacity="1.000000" stroke="none" 
	d="
M1400.483887,1450.368530 
	C1400.832275,1450.223755 1401.211060,1450.545288 1401.796143,1451.192139 
	C1401.391113,1451.575317 1400.895142,1451.347900 1400.483887,1450.368530 
z"/>
<path fill="#A059BA" opacity="1.000000" stroke="none" 
	d="
M967.738708,1454.161621 
	C968.015259,1454.021362 968.176514,1454.706177 968.192627,1455.057617 
	C968.208679,1455.409058 967.399353,1455.103760 967.399353,1455.103760 
	C967.399353,1455.103760 967.462158,1454.301758 967.738708,1454.161621 
z"/>
<path fill="#A059BA" opacity="1.000000" stroke="none" 
	d="
M1364.838379,1290.334961 
	C1364.454224,1290.308960 1364.309204,1289.963501 1363.999756,1289.080322 
	C1364.249512,1289.033569 1364.663452,1289.524536 1364.838379,1290.334961 
z"/>
<path fill="#844092" opacity="1.000000" stroke="none" 
	d="
M1331.993408,1851.970703 
	C1331.928711,1851.909302 1332.295166,1852.030640 1332.241455,1852.092773 
	C1332.187622,1852.155029 1332.058105,1852.032227 1331.993408,1851.970703 
z"/>
<path fill="#844092" opacity="1.000000" stroke="none" 
	d="
M1206.979980,1857.069092 
	C1206.961792,1857.016235 1206.998047,1857.121948 1206.979980,1857.069092 
z"/>
<path fill="#4F6673" opacity="1.000000" stroke="none" 
	d="
M179.766266,1455.710083 
	C178.887207,1439.281128 173.302856,1425.271606 165.428162,1411.985107 
	C164.537140,1410.481689 164.466202,1408.492310 163.796768,1405.875000 
	C170.154617,1406.560913 172.691544,1410.620605 174.793304,1414.500854 
	C178.733322,1421.774658 182.192200,1429.316284 185.681793,1436.825195 
	C191.403564,1449.137695 197.004044,1461.506470 202.609787,1473.872437 
	C203.112015,1474.980347 203.278488,1476.240479 203.657333,1477.638306 
	C192.100266,1476.069214 184.602615,1469.262817 179.766266,1455.710083 
z"/>
<path fill="#4F6673" opacity="1.000000" stroke="none" 
	d="
M145.237457,1413.147217 
	C148.555878,1423.591064 151.574677,1433.346436 154.593475,1443.101807 
	C154.242432,1443.419067 153.891403,1443.736328 153.540359,1444.053711 
	C152.079071,1442.735352 150.434158,1441.569702 149.188644,1440.071899 
	C144.121048,1433.978149 139.087372,1427.851318 134.218994,1421.598267 
	C131.339935,1417.900146 131.814972,1414.146362 135.204895,1410.975098 
	C138.967239,1407.455444 142.279831,1408.114136 145.237457,1413.147217 
z"/>
<path fill="#4C6872" opacity="1.000000" stroke="none" 
	d="
M969.008484,1102.585693 
	C963.725647,1101.510864 959.157654,1100.342407 954.578186,1100.295044 
	C934.247375,1100.085083 913.913208,1100.205566 893.580261,1100.181763 
	C890.582214,1100.178223 887.581360,1100.101807 884.586975,1099.954712 
	C879.361328,1099.697998 876.778564,1096.728638 876.452881,1091.668945 
	C876.281738,1089.010498 876.227417,1086.340454 876.226562,1083.675659 
	C876.213074,1040.009888 876.215393,996.343994 876.219727,952.678162 
	C876.219910,950.678528 876.182495,948.672974 876.314392,946.680237 
	C876.849609,938.593872 878.554993,936.641846 886.572388,936.358643 
	C894.894165,936.064575 903.234863,936.327026 911.567200,936.301697 
	C916.590210,936.286438 920.476013,938.050171 923.352966,942.439758 
	C926.267395,946.886475 929.743896,950.962463 932.924805,955.237549 
	C937.820068,961.816650 937.683167,962.601868 931.481323,968.424561 
	C928.083679,971.614502 924.582214,974.735901 921.516235,978.229248 
	C910.959534,990.257324 903.445740,1003.663879 902.176025,1020.113220 
	C901.433411,1029.733765 899.702209,1039.274536 898.651489,1048.877075 
	C898.292358,1052.159302 898.280762,1055.574951 898.761475,1058.833618 
	C899.697876,1065.182129 903.967468,1069.062134 909.227905,1068.947754 
	C914.200867,1068.839844 918.000244,1065.355591 919.188416,1059.413208 
	C919.707153,1056.818970 919.541016,1054.095947 919.885559,1051.457397 
	C921.437988,1039.570679 922.749146,1027.638306 924.820435,1015.840637 
	C925.603333,1011.381409 927.337952,1006.535706 930.145935,1003.096924 
	C936.640564,995.143555 943.917969,987.805481 951.153381,980.490417 
	C955.018127,976.583069 959.733032,976.004944 964.979492,978.268616 
	C969.242310,980.107910 973.706116,981.674683 978.233643,982.659973 
	C984.467896,984.016724 989.407288,981.171387 991.077759,975.998169 
	C992.613647,971.242065 990.561768,966.376221 985.334717,963.489990 
	C982.439758,961.891479 979.177124,960.969666 976.114990,959.661438 
	C948.781982,947.984314 932.992920,926.981201 930.701233,897.777283 
	C928.328613,867.540222 941.417358,843.741333 968.193787,829.058838 
	C994.595825,814.581604 1021.340332,816.101379 1045.421387,834.056335 
	C1088.232422,865.976501 1083.331421,924.681274 1043.046387,952.403809 
	C1039.484375,954.854919 1035.568481,956.788818 1031.977051,959.200928 
	C1027.715698,962.063049 1025.691895,966.079773 1027.094238,971.255066 
	C1028.319702,975.777344 1032.272217,979.005981 1038.060059,977.644531 
	C1049.429688,974.970276 1056.258789,981.293518 1063.363037,988.043518 
	C1081.413330,1005.193665 1087.532471,1027.350342 1089.984009,1051.065063 
	C1090.326294,1054.376953 1090.207031,1057.765625 1090.846924,1061.011230 
	C1091.900635,1066.357788 1095.576538,1069.437012 1100.443604,1069.542358 
	C1105.459229,1069.651001 1108.822144,1066.982666 1110.142090,1062.442017 
	C1111.141479,1059.004272 1111.962158,1055.084229 1111.314697,1051.672607 
	C1108.463257,1036.648071 1105.955688,1021.458252 1101.569336,1006.855225 
	C1097.697632,993.965759 1089.074829,983.470947 1079.401855,974.024841 
	C1065.040039,959.999817 1066.397705,962.287048 1077.566650,948.932800 
	C1079.273438,946.892090 1080.868896,944.732605 1082.293457,942.486877 
	C1085.063965,938.119385 1089.033936,936.285278 1094.084351,936.303711 
	C1102.416748,936.334106 1110.755859,936.077087 1119.080078,936.333008 
	C1127.821777,936.601746 1129.616455,938.497131 1130.087646,946.978577 
	C1130.272339,950.302795 1130.190430,953.643066 1130.190796,956.976074 
	C1130.196167,997.641968 1130.195312,1038.307861 1130.192261,1078.973755 
	C1130.192139,1081.973633 1130.243774,1084.976440 1130.133301,1087.972900 
	C1129.753540,1098.278442 1128.157104,1099.821655 1117.500854,1100.140747 
	C1113.837280,1100.250488 1110.168213,1100.190063 1106.501709,1100.192993 
	C1087.168823,1100.208374 1067.835815,1100.242310 1048.502930,1100.217285 
	C1042.719849,1100.209717 1037.511963,1101.282715 1032.505737,1104.745239 
	C1029.467773,1106.846313 1025.144165,1107.842651 1021.354248,1107.963501 
	C1009.033752,1108.356689 996.692261,1108.030518 984.360718,1108.162354 
	C978.779663,1108.221924 973.805054,1106.985474 969.008484,1102.585693 
M992.555176,985.756470 
	C985.298218,1006.158325 978.167969,1026.606567 970.717834,1046.937622 
	C967.996643,1054.363770 968.958801,1060.654785 974.652771,1066.104004 
	C981.625488,1072.776855 988.475220,1079.601929 995.773682,1085.903198 
	C1001.123352,1090.521973 1005.558472,1090.513794 1011.067261,1085.968628 
	C1017.476501,1080.680542 1023.170715,1074.526978 1029.569580,1069.224976 
	C1037.957397,1062.274902 1039.288452,1054.244385 1035.739502,1044.225464 
	C1029.065796,1025.385498 1023.031616,1006.319458 1016.638794,987.378723 
	C1015.687744,984.560730 1014.601318,981.659180 1012.935852,979.237732 
	C1009.164856,973.755188 1002.050964,973.027649 997.352051,977.658630 
	C995.522583,979.461548 994.508667,982.091919 992.555176,985.756470 
M1054.206787,1086.923218 
	C1063.846680,1087.826416 1067.170898,1085.636108 1069.007202,1076.925903 
	C1069.482422,1074.671509 1069.684570,1072.322510 1069.701416,1070.014648 
	C1069.793091,1057.431519 1069.504150,1044.919922 1074.203003,1032.766113 
	C1076.459839,1026.928955 1073.380371,1021.789246 1068.307251,1019.691956 
	C1063.247925,1017.600342 1057.517700,1019.355469 1055.247803,1025.337646 
	C1052.113037,1033.599609 1049.588989,1042.266846 1048.246094,1050.982666 
	C1047.098267,1058.431885 1047.997070,1066.194458 1047.964478,1073.818359 
	C1047.943970,1078.593262 1048.425659,1083.150757 1054.206787,1086.923218 
M956.888916,1032.322754 
	C955.506592,1029.318848 954.415527,1026.132446 952.673340,1023.354248 
	C950.101135,1019.252380 946.139893,1017.831482 941.458008,1019.297241 
	C936.789551,1020.758911 934.324402,1024.216919 934.431580,1028.998169 
	C934.496948,1031.914673 935.653320,1034.791016 936.115112,1037.717651 
	C937.396423,1045.839233 938.803406,1053.952026 939.703796,1062.118652 
	C940.282593,1067.368408 939.675354,1072.751099 940.283936,1077.994751 
	C941.033813,1084.455811 945.151794,1087.917236 950.750183,1087.699707 
	C956.334229,1087.482544 960.134583,1083.690552 960.397461,1077.149902 
	C960.689941,1069.873657 960.737061,1062.547607 960.227539,1055.289917 
	C959.722229,1048.093628 958.390869,1040.955078 956.888916,1032.322754 
M1019.364258,924.885986 
	C1022.564087,923.171082 1026.045044,921.826538 1028.901123,919.658691 
	C1033.782959,915.953308 1035.057617,910.136414 1032.613892,905.538635 
	C1030.083618,900.777588 1025.156494,899.091858 1018.827271,901.833374 
	C1012.312927,904.655090 1005.816711,907.168396 998.694458,905.692322 
	C994.533325,904.829834 990.602295,902.887451 986.538757,901.516785 
	C980.003540,899.312439 974.463013,901.176392 972.050964,906.310974 
	C969.889832,910.911499 971.695374,916.449219 976.845703,920.090576 
	C978.989441,921.606262 981.416016,922.799072 983.849121,923.814880 
	C994.971985,928.458801 1006.317139,929.182068 1019.364258,924.885986 
M985.102661,884.497559 
	C986.750977,882.924866 988.926392,881.635315 989.951050,879.727661 
	C993.328430,873.440125 990.170593,865.538330 983.723450,863.292053 
	C978.040955,861.312134 971.100037,864.624268 969.046753,870.295715 
	C966.667358,876.867676 970.634521,883.923523 977.810913,885.420654 
	C979.666687,885.807861 981.728638,885.206726 985.102661,884.497559 
M1037.150391,873.301514 
	C1036.301270,871.180359 1035.890137,868.708008 1034.522461,867.002686 
	C1030.087280,861.471985 1021.689331,861.463257 1017.047913,866.689331 
	C1012.721680,871.560547 1013.590881,879.441589 1018.893433,883.422546 
	C1024.239624,887.436279 1031.611328,886.180969 1035.326172,880.383240 
	C1036.351685,878.782776 1036.574097,876.667786 1037.150391,873.301514 
z"/>
<path fill="#4B6773" opacity="1.000000" stroke="none" 
	d="
M994.009583,1130.176514 
	C1006.992981,1130.167847 1018.978821,1130.101685 1030.963867,1130.173218 
	C1037.105713,1130.209961 1042.622681,1129.158447 1047.742554,1125.129517 
	C1050.358398,1123.071167 1054.449585,1122.029663 1057.884888,1122.004028 
	C1089.511230,1121.767700 1121.140137,1121.842773 1152.768188,1121.874878 
	C1154.749023,1121.876953 1156.824463,1121.973022 1158.691650,1122.553711 
	C1163.920288,1124.179810 1165.302856,1129.830811 1161.115723,1133.441040 
	C1158.963745,1135.296631 1155.963257,1136.522705 1153.148560,1137.161499 
	C1149.951904,1137.886963 1146.534424,1137.790039 1143.212891,1137.791016 
	C1049.992188,1137.819702 956.771423,1137.820557 863.550659,1137.796143 
	C860.228333,1137.795288 856.821167,1137.894287 853.609375,1137.212280 
	C850.770020,1136.609375 847.613953,1135.541992 845.601135,1133.625732 
	C844.014160,1132.114868 843.109131,1128.855103 843.490295,1126.646240 
	C843.778992,1124.973022 846.362488,1123.108887 848.303711,1122.455566 
	C850.738037,1121.636230 853.559387,1121.826904 856.213989,1121.823853 
	C885.178955,1121.789917 914.144104,1121.845703 943.108887,1121.770020 
	C949.252625,1121.754028 954.682495,1122.749023 959.833069,1126.797974 
	C962.673889,1129.031250 967.204285,1129.687988 971.048157,1129.949463 
	C978.340759,1130.445190 985.687500,1130.145508 994.009583,1130.176514 
z"/>
<path fill="#4F6873" opacity="1.000000" stroke="none" 
	d="
M954.132202,1412.343140 
	C935.162537,1415.537964 916.983459,1417.273682 898.750854,1413.943237 
	C892.917297,1412.877441 886.979370,1411.292603 881.663330,1408.746460 
	C874.149353,1405.147583 873.943726,1397.753052 881.693970,1394.670288 
	C891.459534,1390.785889 901.877197,1387.876587 912.276062,1386.414917 
	C925.721619,1384.525146 939.426636,1384.482544 953.019836,1383.641724 
	C956.002380,1383.457153 958.985596,1383.084839 961.966003,1383.109131 
	C966.783569,1383.148315 971.599182,1383.444214 977.179565,1383.661621 
	C976.805542,1390.907837 976.880615,1396.838013 975.996338,1402.621582 
	C975.682617,1404.673706 973.377563,1407.329956 971.385742,1408.040771 
	C966.097229,1409.928345 960.483826,1410.905640 954.132202,1412.343140 
z"/>
<path fill="#4443A2" opacity="1.000000" stroke="none" 
	d="
M992.839233,985.050903 
	C994.508667,982.091919 995.522583,979.461548 997.352051,977.658630 
	C1002.050964,973.027649 1009.164856,973.755188 1012.935852,979.237732 
	C1014.601318,981.659180 1015.687744,984.560730 1016.638794,987.378723 
	C1023.031616,1006.319458 1029.065796,1025.385498 1035.739502,1044.225464 
	C1039.288452,1054.244385 1037.957397,1062.274902 1029.569580,1069.224976 
	C1023.170715,1074.526978 1017.476501,1080.680542 1011.067261,1085.968628 
	C1005.558472,1090.513794 1001.123352,1090.521973 995.773682,1085.903198 
	C988.475220,1079.601929 981.625488,1072.776855 974.652771,1066.104004 
	C968.958801,1060.654785 967.996643,1054.363770 970.717834,1046.937622 
	C978.167969,1026.606567 985.298218,1006.158325 992.839233,985.050903 
M1002.580017,1023.990662 
	C999.610718,1031.654907 996.311768,1039.212646 993.787903,1047.020874 
	C992.098389,1052.248169 995.122925,1057.361084 1000.208252,1060.019287 
	C1005.316650,1062.689575 1008.160706,1058.950562 1011.323120,1056.175537 
	C1014.466553,1053.417358 1014.717224,1049.933960 1013.487610,1046.212280 
	C1011.315063,1039.636353 1009.198059,1033.037476 1006.786804,1026.548828 
	C1006.319214,1025.290527 1004.613647,1024.492188 1002.580017,1023.990662 
z"/>
<path fill="#4443A1" opacity="1.000000" stroke="none" 
	d="
M1053.523193,1086.544678 
	C1048.425659,1083.150757 1047.943970,1078.593262 1047.964478,1073.818359 
	C1047.997070,1066.194458 1047.098267,1058.431885 1048.246094,1050.982666 
	C1049.588989,1042.266846 1052.113037,1033.599609 1055.247803,1025.337646 
	C1057.517700,1019.355469 1063.247925,1017.600342 1068.307251,1019.691956 
	C1073.380371,1021.789246 1076.459839,1026.928955 1074.203003,1032.766113 
	C1069.504150,1044.919922 1069.793091,1057.431519 1069.701416,1070.014648 
	C1069.684570,1072.322510 1069.482422,1074.671509 1069.007202,1076.925903 
	C1067.170898,1085.636108 1063.846680,1087.826416 1053.523193,1086.544678 
z"/>
<path fill="#4443A2" opacity="1.000000" stroke="none" 
	d="
M957.155334,1033.057007 
	C958.390869,1040.955078 959.722229,1048.093628 960.227539,1055.289917 
	C960.737061,1062.547607 960.689941,1069.873657 960.397461,1077.149902 
	C960.134583,1083.690552 956.334229,1087.482544 950.750183,1087.699707 
	C945.151794,1087.917236 941.033813,1084.455811 940.283936,1077.994751 
	C939.675354,1072.751099 940.282593,1067.368408 939.703796,1062.118652 
	C938.803406,1053.952026 937.396423,1045.839233 936.115112,1037.717651 
	C935.653320,1034.791016 934.496948,1031.914673 934.431580,1028.998169 
	C934.324402,1024.216919 936.789551,1020.758911 941.458008,1019.297241 
	C946.139893,1017.831482 950.101135,1019.252380 952.673340,1023.354248 
	C954.415527,1026.132446 955.506592,1029.318848 957.155334,1033.057007 
z"/>
<path fill="#4443A1" opacity="1.000000" stroke="none" 
	d="
M1018.608765,925.146057 
	C1006.317139,929.182068 994.971985,928.458801 983.849121,923.814880 
	C981.416016,922.799072 978.989441,921.606262 976.845703,920.090576 
	C971.695374,916.449219 969.889832,910.911499 972.050964,906.310974 
	C974.463013,901.176392 980.003540,899.312439 986.538757,901.516785 
	C990.602295,902.887451 994.533325,904.829834 998.694458,905.692322 
	C1005.816711,907.168396 1012.312927,904.655090 1018.827271,901.833374 
	C1025.156494,899.091858 1030.083618,900.777588 1032.613892,905.538635 
	C1035.057617,910.136414 1033.782959,915.953308 1028.901123,919.658691 
	C1026.045044,921.826538 1022.564087,923.171082 1018.608765,925.146057 
z"/>
<path fill="#4443A1" opacity="1.000000" stroke="none" 
	d="
M984.399292,884.778564 
	C981.728638,885.206726 979.666687,885.807861 977.810913,885.420654 
	C970.634521,883.923523 966.667358,876.867676 969.046753,870.295715 
	C971.100037,864.624268 978.040955,861.312134 983.723450,863.292053 
	C990.170593,865.538330 993.328430,873.440125 989.951050,879.727661 
	C988.926392,881.635315 986.750977,882.924866 984.399292,884.778564 
z"/>
<path fill="#4443A1" opacity="1.000000" stroke="none" 
	d="
M1037.157715,874.045166 
	C1036.574097,876.667786 1036.351685,878.782776 1035.326172,880.383240 
	C1031.611328,886.180969 1024.239624,887.436279 1018.893433,883.422546 
	C1013.590881,879.441589 1012.721680,871.560547 1017.047913,866.689331 
	C1021.689331,861.463257 1030.087280,861.471985 1034.522461,867.002686 
	C1035.890137,868.708008 1036.301270,871.180359 1037.157715,874.045166 
z"/>
<path fill="#4D6674" opacity="1.000000" stroke="none" 
	d="
M1003.029541,1023.736206 
	C1004.613647,1024.492188 1006.319214,1025.290527 1006.786804,1026.548828 
	C1009.198059,1033.037476 1011.315063,1039.636353 1013.487610,1046.212280 
	C1014.717224,1049.933960 1014.466553,1053.417358 1011.323120,1056.175537 
	C1008.160706,1058.950562 1005.316650,1062.689575 1000.208252,1060.019287 
	C995.122925,1057.361084 992.098389,1052.248169 993.787903,1047.020874 
	C996.311768,1039.212646 999.610718,1031.654907 1003.029541,1023.736206 
z"/>
</svg>